<svg width="727" height="507" viewBox="0 0 727 507" fill="none" xmlns="http://www.w3.org/2000/svg">
<rect width="727" height="507" fill="white"/>
<rect id="Rectangle 1" x="202" width="162" height="81" fill="#B3F0B2"/>
<rect id="Rectangle 2" y="206" width="162" height="81" fill="#B3F0B2"/>
<rect id="Rectangle 3" x="298" y="426" width="162" height="81" fill="#F1EEA2"/>
<rect id="Rectangle 4" x="565" y="206" width="162" height="81" fill="#B3F0B2"/>
<path id="Form State" d="M245.018 40.0347H239.349V46H237.568V32.4922H245.936V33.958H239.349V38.5781H245.018V40.0347ZM247.142 40.8882C247.142 39.9048 247.334 39.0203 247.717 38.2349C248.107 37.4494 248.645 36.8433 249.332 36.4165C250.024 35.9897 250.813 35.7764 251.697 35.7764C253.064 35.7764 254.168 36.2495 255.009 37.1958C255.857 38.1421 256.28 39.4007 256.28 40.9717V41.0923C256.28 42.0695 256.092 42.9478 255.714 43.7271C255.343 44.5002 254.808 45.1032 254.109 45.5361C253.417 45.9691 252.619 46.1855 251.716 46.1855C250.355 46.1855 249.251 45.7124 248.404 44.7661C247.563 43.8198 247.142 42.5674 247.142 41.0088V40.8882ZM248.868 41.0923C248.868 42.2056 249.124 43.0993 249.638 43.7734C250.157 44.4476 250.85 44.7847 251.716 44.7847C252.588 44.7847 253.281 44.4445 253.794 43.7642C254.307 43.0776 254.564 42.119 254.564 40.8882C254.564 39.7873 254.301 38.8966 253.775 38.2163C253.256 37.5298 252.563 37.1865 251.697 37.1865C250.85 37.1865 250.167 37.5236 249.647 38.1978C249.127 38.8719 248.868 39.8368 248.868 41.0923ZM263.285 37.502C263.025 37.4587 262.743 37.437 262.44 37.437C261.315 37.437 260.551 37.9163 260.149 38.875V46H258.433V35.9619H260.103L260.13 37.1216C260.693 36.2248 261.491 35.7764 262.524 35.7764C262.858 35.7764 263.111 35.8197 263.285 35.9062V37.502ZM266.485 35.9619L266.532 37.0752C267.268 36.2093 268.26 35.7764 269.51 35.7764C270.914 35.7764 271.869 36.3145 272.376 37.3906C272.71 36.9082 273.143 36.5186 273.675 36.2217C274.213 35.9248 274.847 35.7764 275.577 35.7764C277.779 35.7764 278.898 36.9422 278.936 39.2739V46H277.219V39.376C277.219 38.6585 277.055 38.1235 276.728 37.771C276.4 37.4123 275.849 37.2329 275.076 37.2329C274.439 37.2329 273.91 37.4246 273.49 37.8081C273.069 38.1854 272.825 38.6956 272.757 39.3389V46H271.031V39.4224C271.031 37.9627 270.317 37.2329 268.888 37.2329C267.763 37.2329 266.993 37.7122 266.578 38.6709V46H264.862V35.9619H266.485ZM290.495 39.979C288.967 39.5399 287.854 39.0018 287.155 38.3647C286.463 37.7215 286.116 36.9299 286.116 35.9897C286.116 34.9259 286.54 34.0477 287.387 33.355C288.241 32.6561 289.348 32.3066 290.708 32.3066C291.636 32.3066 292.462 32.486 293.186 32.8447C293.915 33.2035 294.478 33.6982 294.874 34.3291C295.276 34.96 295.477 35.6496 295.477 36.3979H293.687C293.687 35.5815 293.427 34.9414 292.907 34.4775C292.388 34.0075 291.655 33.7725 290.708 33.7725C289.83 33.7725 289.144 33.9673 288.649 34.3569C288.16 34.7404 287.916 35.2754 287.916 35.9619C287.916 36.5124 288.148 36.9793 288.612 37.3628C289.082 37.7401 289.877 38.0864 290.996 38.4019C292.122 38.7173 293 39.0667 293.631 39.4502C294.268 39.8275 294.738 40.2697 295.041 40.7769C295.35 41.284 295.505 41.8809 295.505 42.5674C295.505 43.6621 295.078 44.5404 294.225 45.2021C293.371 45.8577 292.23 46.1855 290.801 46.1855C289.874 46.1855 289.008 46.0093 288.204 45.6567C287.4 45.298 286.778 44.8094 286.339 44.1909C285.906 43.5724 285.689 42.8704 285.689 42.085H287.48C287.48 42.9014 287.78 43.5477 288.38 44.0239C288.986 44.494 289.793 44.729 290.801 44.729C291.741 44.729 292.462 44.5373 292.963 44.1538C293.464 43.7703 293.714 43.2477 293.714 42.5859C293.714 41.9242 293.482 41.4139 293.019 41.0552C292.555 40.6903 291.714 40.3315 290.495 39.979ZM299.856 33.5312V35.9619H301.73V37.2886H299.856V43.5137C299.856 43.9157 299.939 44.2188 300.106 44.4229C300.273 44.6208 300.558 44.7197 300.96 44.7197C301.158 44.7197 301.43 44.6826 301.776 44.6084V46C301.325 46.1237 300.886 46.1855 300.459 46.1855C299.692 46.1855 299.114 45.9536 298.724 45.4897C298.334 45.0259 298.14 44.3672 298.14 43.5137V37.2886H296.312V35.9619H298.14V33.5312H299.856ZM309.94 46C309.841 45.8021 309.761 45.4495 309.699 44.9424C308.901 45.7712 307.949 46.1855 306.842 46.1855C305.852 46.1855 305.039 45.9072 304.402 45.3506C303.771 44.7878 303.456 44.0765 303.456 43.2168C303.456 42.1715 303.851 41.3613 304.643 40.7861C305.441 40.2048 306.56 39.9141 308.001 39.9141H309.671V39.1255C309.671 38.5256 309.492 38.0493 309.133 37.6968C308.775 37.3381 308.246 37.1587 307.547 37.1587C306.935 37.1587 306.421 37.3133 306.007 37.6226C305.592 37.9318 305.385 38.306 305.385 38.7451H303.66C303.66 38.2441 303.836 37.7617 304.188 37.2979C304.547 36.8278 305.03 36.4567 305.636 36.1846C306.248 35.9124 306.919 35.7764 307.649 35.7764C308.806 35.7764 309.712 36.0671 310.367 36.6484C311.023 37.2236 311.363 38.0184 311.388 39.0327V43.6528C311.388 44.5744 311.505 45.3073 311.74 45.8516V46H309.94ZM307.092 44.6919C307.63 44.6919 308.141 44.5527 308.623 44.2744C309.105 43.9961 309.455 43.6343 309.671 43.189V41.1294H308.326C306.223 41.1294 305.172 41.7448 305.172 42.9756C305.172 43.5137 305.351 43.9342 305.71 44.2373C306.069 44.5404 306.529 44.6919 307.092 44.6919ZM316.407 33.5312V35.9619H318.281V37.2886H316.407V43.5137C316.407 43.9157 316.49 44.2188 316.657 44.4229C316.824 44.6208 317.109 44.7197 317.511 44.7197C317.709 44.7197 317.981 44.6826 318.327 44.6084V46C317.876 46.1237 317.437 46.1855 317.01 46.1855C316.243 46.1855 315.665 45.9536 315.275 45.4897C314.885 45.0259 314.69 44.3672 314.69 43.5137V37.2886H312.863V35.9619H314.69V33.5312H316.407ZM324.459 46.1855C323.099 46.1855 321.992 45.7402 321.138 44.8496C320.285 43.9528 319.858 42.756 319.858 41.2593V40.9438C319.858 39.9481 320.047 39.0605 320.424 38.2812C320.807 37.4958 321.339 36.8835 322.02 36.4443C322.706 35.999 323.448 35.7764 324.246 35.7764C325.551 35.7764 326.565 36.2062 327.289 37.0659C328.013 37.9256 328.375 39.1564 328.375 40.7583V41.4727H321.574C321.599 42.4622 321.887 43.2632 322.437 43.8755C322.994 44.4816 323.699 44.7847 324.552 44.7847C325.158 44.7847 325.672 44.661 326.092 44.4136C326.513 44.1662 326.881 43.8384 327.196 43.4302L328.245 44.2466C327.403 45.5392 326.142 46.1855 324.459 46.1855ZM324.246 37.1865C323.553 37.1865 322.972 37.4401 322.502 37.9473C322.032 38.4482 321.741 39.1533 321.63 40.0625H326.658V39.9326C326.609 39.0605 326.374 38.3864 325.953 37.9102C325.533 37.4277 324.964 37.1865 324.246 37.1865Z" fill="black"/>
<path id="Clone of Form State" d="M45.5039 241.714C45.3369 243.143 44.8081 244.247 43.9175 245.026C43.033 245.799 41.8548 246.186 40.3828 246.186C38.7871 246.186 37.5068 245.613 36.542 244.469C35.5833 243.325 35.104 241.794 35.104 239.877V238.578C35.104 237.323 35.3267 236.219 35.772 235.266C36.2235 234.314 36.8605 233.584 37.6831 233.077C38.5057 232.563 39.4582 232.307 40.5405 232.307C41.9754 232.307 43.1258 232.709 43.9917 233.513C44.8576 234.311 45.3617 235.418 45.5039 236.834H43.7134C43.5588 235.758 43.2217 234.979 42.7021 234.496C42.1888 234.014 41.4683 233.772 40.5405 233.772C39.4025 233.772 38.5088 234.193 37.8594 235.034C37.2161 235.875 36.8945 237.072 36.8945 238.625V239.933C36.8945 241.398 37.2007 242.564 37.813 243.43C38.4253 244.296 39.2819 244.729 40.3828 244.729C41.3724 244.729 42.13 244.506 42.6558 244.061C43.1877 243.61 43.5402 242.827 43.7134 241.714H45.5039ZM49.5396 246H47.8232V231.75H49.5396V246ZM51.8403 240.888C51.8403 239.905 52.0321 239.02 52.4155 238.235C52.8052 237.449 53.3433 236.843 54.0298 236.417C54.7225 235.99 55.5111 235.776 56.3955 235.776C57.7624 235.776 58.8664 236.25 59.7075 237.196C60.5549 238.142 60.9785 239.401 60.9785 240.972V241.092C60.9785 242.069 60.7899 242.948 60.4126 243.727C60.0415 244.5 59.5065 245.103 58.8076 245.536C58.1149 245.969 57.3171 246.186 56.4141 246.186C55.0534 246.186 53.9494 245.712 53.1021 244.766C52.2609 243.82 51.8403 242.567 51.8403 241.009V240.888ZM53.5659 241.092C53.5659 242.206 53.8226 243.099 54.3359 243.773C54.8555 244.448 55.5482 244.785 56.4141 244.785C57.2861 244.785 57.9788 244.444 58.4922 243.764C59.0055 243.078 59.2622 242.119 59.2622 240.888C59.2622 239.787 58.9993 238.897 58.4736 238.216C57.9541 237.53 57.2614 237.187 56.3955 237.187C55.5482 237.187 54.8647 237.524 54.3452 238.198C53.8257 238.872 53.5659 239.837 53.5659 241.092ZM64.7544 235.962L64.8101 237.224C65.577 236.259 66.5789 235.776 67.8159 235.776C69.9373 235.776 71.0073 236.973 71.0259 239.367V246H69.3096V239.357C69.3034 238.634 69.1364 238.099 68.8086 237.752C68.487 237.406 67.9829 237.233 67.2964 237.233C66.7397 237.233 66.2511 237.381 65.8306 237.678C65.41 237.975 65.0822 238.365 64.8472 238.847V246H63.1309V235.962H64.7544ZM77.7798 246.186C76.4191 246.186 75.312 245.74 74.4585 244.85C73.605 243.953 73.1782 242.756 73.1782 241.259V240.944C73.1782 239.948 73.3669 239.061 73.7441 238.281C74.1276 237.496 74.6595 236.883 75.3398 236.444C76.0264 235.999 76.7686 235.776 77.5664 235.776C78.8714 235.776 79.8857 236.206 80.6094 237.066C81.333 237.926 81.6948 239.156 81.6948 240.758V241.473H74.8945C74.9193 242.462 75.2069 243.263 75.7573 243.875C76.314 244.482 77.019 244.785 77.8726 244.785C78.4787 244.785 78.992 244.661 79.4126 244.414C79.8332 244.166 80.2012 243.838 80.5166 243.43L81.5649 244.247C80.7238 245.539 79.4621 246.186 77.7798 246.186ZM77.5664 237.187C76.8737 237.187 76.2923 237.44 75.8223 237.947C75.3522 238.448 75.0615 239.153 74.9502 240.062H79.9785V239.933C79.929 239.061 79.694 238.386 79.2734 237.91C78.8529 237.428 78.2839 237.187 77.5664 237.187ZM87.9478 240.888C87.9478 239.905 88.1395 239.02 88.5229 238.235C88.9126 237.449 89.4507 236.843 90.1372 236.417C90.8299 235.99 91.6185 235.776 92.5029 235.776C93.8698 235.776 94.9738 236.25 95.8149 237.196C96.6623 238.142 97.0859 239.401 97.0859 240.972V241.092C97.0859 242.069 96.8973 242.948 96.52 243.727C96.1489 244.5 95.6139 245.103 94.915 245.536C94.2223 245.969 93.4245 246.186 92.5215 246.186C91.1608 246.186 90.0568 245.712 89.2095 244.766C88.3683 243.82 87.9478 242.567 87.9478 241.009V240.888ZM89.6733 241.092C89.6733 242.206 89.93 243.099 90.4434 243.773C90.9629 244.448 91.6556 244.785 92.5215 244.785C93.3936 244.785 94.0863 244.444 94.5996 243.764C95.113 243.078 95.3696 242.119 95.3696 240.888C95.3696 239.787 95.1068 238.897 94.5811 238.216C94.0615 237.53 93.3688 237.187 92.5029 237.187C91.6556 237.187 90.9722 237.524 90.4526 238.198C89.9331 238.872 89.6733 239.837 89.6733 241.092ZM100.083 246V237.289H98.4961V235.962H100.083V234.932C100.083 233.856 100.37 233.024 100.945 232.437C101.521 231.849 102.334 231.555 103.385 231.555C103.781 231.555 104.174 231.608 104.563 231.713L104.471 233.104C104.18 233.049 103.871 233.021 103.543 233.021C102.986 233.021 102.556 233.185 102.253 233.513C101.95 233.834 101.799 234.298 101.799 234.904V235.962H103.942V237.289H101.799V246H100.083ZM43.0176 262.035H37.3491V268H35.5679V254.492H43.936V255.958H37.3491V260.578H43.0176V262.035ZM45.1421 262.888C45.1421 261.905 45.3338 261.02 45.7173 260.235C46.1069 259.449 46.645 258.843 47.3315 258.417C48.0243 257.99 48.8128 257.776 49.6973 257.776C51.0641 257.776 52.1681 258.25 53.0093 259.196C53.8566 260.142 54.2803 261.401 54.2803 262.972V263.092C54.2803 264.069 54.0916 264.948 53.7144 265.727C53.3433 266.5 52.8083 267.103 52.1094 267.536C51.4167 267.969 50.6188 268.186 49.7158 268.186C48.3551 268.186 47.2511 267.712 46.4038 266.766C45.5627 265.82 45.1421 264.567 45.1421 263.009V262.888ZM46.8677 263.092C46.8677 264.206 47.1243 265.099 47.6377 265.773C48.1572 266.448 48.8499 266.785 49.7158 266.785C50.5879 266.785 51.2806 266.444 51.7939 265.764C52.3073 265.078 52.564 264.119 52.564 262.888C52.564 261.787 52.3011 260.897 51.7754 260.216C51.2559 259.53 50.5632 259.187 49.6973 259.187C48.8499 259.187 48.1665 259.524 47.647 260.198C47.1274 260.872 46.8677 261.837 46.8677 263.092ZM61.2847 259.502C61.0249 259.459 60.7435 259.437 60.4404 259.437C59.3148 259.437 58.5509 259.916 58.1489 260.875V268H56.4326V257.962H58.1025L58.1304 259.122C58.6932 258.225 59.491 257.776 60.5239 257.776C60.8579 257.776 61.1115 257.82 61.2847 257.906V259.502ZM64.4854 257.962L64.5317 259.075C65.2677 258.209 66.2604 257.776 67.5098 257.776C68.9137 257.776 69.8693 258.314 70.3765 259.391C70.7104 258.908 71.1434 258.519 71.6753 258.222C72.2134 257.925 72.8473 257.776 73.5771 257.776C75.779 257.776 76.8984 258.942 76.9355 261.274V268H75.2192V261.376C75.2192 260.659 75.0553 260.124 74.7275 259.771C74.3997 259.412 73.8493 259.233 73.0762 259.233C72.4391 259.233 71.9103 259.425 71.4897 259.808C71.0692 260.185 70.8249 260.696 70.7568 261.339V268H69.0312V261.422C69.0312 259.963 68.3169 259.233 66.8882 259.233C65.7625 259.233 64.9925 259.712 64.5781 260.671V268H62.8618V257.962H64.4854ZM88.4951 261.979C86.9674 261.54 85.8542 261.002 85.1553 260.365C84.4626 259.722 84.1162 258.93 84.1162 257.99C84.1162 256.926 84.5399 256.048 85.3872 255.355C86.2407 254.656 87.3478 254.307 88.7085 254.307C89.6362 254.307 90.4619 254.486 91.1855 254.845C91.9154 255.203 92.4782 255.698 92.874 256.329C93.276 256.96 93.4771 257.65 93.4771 258.398H91.6865C91.6865 257.582 91.4268 256.941 90.9072 256.478C90.3877 256.007 89.6548 255.772 88.7085 255.772C87.8302 255.772 87.1437 255.967 86.6489 256.357C86.1603 256.74 85.916 257.275 85.916 257.962C85.916 258.512 86.1479 258.979 86.6118 259.363C87.0819 259.74 87.8766 260.086 88.9961 260.402C90.1217 260.717 91 261.067 91.6309 261.45C92.2679 261.827 92.738 262.27 93.041 262.777C93.3503 263.284 93.5049 263.881 93.5049 264.567C93.5049 265.662 93.0781 266.54 92.2246 267.202C91.3711 267.858 90.23 268.186 88.8013 268.186C87.8735 268.186 87.0076 268.009 86.2036 267.657C85.3996 267.298 84.778 266.809 84.3389 266.191C83.9059 265.572 83.6895 264.87 83.6895 264.085H85.48C85.48 264.901 85.7799 265.548 86.3799 266.024C86.986 266.494 87.7931 266.729 88.8013 266.729C89.7414 266.729 90.4619 266.537 90.9629 266.154C91.4639 265.77 91.7144 265.248 91.7144 264.586C91.7144 263.924 91.4824 263.414 91.0186 263.055C90.5547 262.69 89.7135 262.332 88.4951 261.979ZM97.856 255.531V257.962H99.73V259.289H97.856V265.514C97.856 265.916 97.9395 266.219 98.1064 266.423C98.2734 266.621 98.5579 266.72 98.96 266.72C99.1579 266.72 99.43 266.683 99.7764 266.608V268C99.3249 268.124 98.8857 268.186 98.459 268.186C97.6921 268.186 97.1138 267.954 96.7241 267.49C96.3345 267.026 96.1396 266.367 96.1396 265.514V259.289H94.312V257.962H96.1396V255.531H97.856ZM107.94 268C107.841 267.802 107.761 267.45 107.699 266.942C106.901 267.771 105.949 268.186 104.842 268.186C103.852 268.186 103.039 267.907 102.402 267.351C101.771 266.788 101.456 266.076 101.456 265.217C101.456 264.172 101.851 263.361 102.643 262.786C103.441 262.205 104.56 261.914 106.001 261.914H107.671V261.125C107.671 260.526 107.492 260.049 107.133 259.697C106.775 259.338 106.246 259.159 105.547 259.159C104.935 259.159 104.421 259.313 104.007 259.623C103.592 259.932 103.385 260.306 103.385 260.745H101.66C101.66 260.244 101.836 259.762 102.188 259.298C102.547 258.828 103.03 258.457 103.636 258.185C104.248 257.912 104.919 257.776 105.649 257.776C106.806 257.776 107.712 258.067 108.367 258.648C109.023 259.224 109.363 260.018 109.388 261.033V265.653C109.388 266.574 109.505 267.307 109.74 267.852V268H107.94ZM105.092 266.692C105.63 266.692 106.141 266.553 106.623 266.274C107.105 265.996 107.455 265.634 107.671 265.189V263.129H106.326C104.223 263.129 103.172 263.745 103.172 264.976C103.172 265.514 103.351 265.934 103.71 266.237C104.069 266.54 104.529 266.692 105.092 266.692ZM114.407 255.531V257.962H116.281V259.289H114.407V265.514C114.407 265.916 114.49 266.219 114.657 266.423C114.824 266.621 115.109 266.72 115.511 266.72C115.709 266.72 115.981 266.683 116.327 266.608V268C115.876 268.124 115.437 268.186 115.01 268.186C114.243 268.186 113.665 267.954 113.275 267.49C112.885 267.026 112.69 266.367 112.69 265.514V259.289H110.863V257.962H112.69V255.531H114.407ZM122.459 268.186C121.099 268.186 119.992 267.74 119.138 266.85C118.285 265.953 117.858 264.756 117.858 263.259V262.944C117.858 261.948 118.047 261.061 118.424 260.281C118.807 259.496 119.339 258.883 120.02 258.444C120.706 257.999 121.448 257.776 122.246 257.776C123.551 257.776 124.565 258.206 125.289 259.066C126.013 259.926 126.375 261.156 126.375 262.758V263.473H119.574C119.599 264.462 119.887 265.263 120.437 265.875C120.994 266.482 121.699 266.785 122.552 266.785C123.158 266.785 123.672 266.661 124.092 266.414C124.513 266.166 124.881 265.838 125.196 265.43L126.245 266.247C125.403 267.539 124.142 268.186 122.459 268.186ZM122.246 259.187C121.553 259.187 120.972 259.44 120.502 259.947C120.032 260.448 119.741 261.153 119.63 262.062H124.658V261.933C124.609 261.061 124.374 260.386 123.953 259.91C123.533 259.428 122.964 259.187 122.246 259.187Z" fill="black"/>
<path id="Form" d="M365.018 467.035H359.349V473H357.568V459.492H365.936V460.958H359.349V465.578H365.018V467.035ZM367.142 467.888C367.142 466.905 367.334 466.02 367.717 465.235C368.107 464.449 368.645 463.843 369.332 463.417C370.024 462.99 370.813 462.776 371.697 462.776C373.064 462.776 374.168 463.25 375.009 464.196C375.857 465.142 376.28 466.401 376.28 467.972V468.092C376.28 469.069 376.092 469.948 375.714 470.727C375.343 471.5 374.808 472.103 374.109 472.536C373.417 472.969 372.619 473.186 371.716 473.186C370.355 473.186 369.251 472.712 368.404 471.766C367.563 470.82 367.142 469.567 367.142 468.009V467.888ZM368.868 468.092C368.868 469.206 369.124 470.099 369.638 470.773C370.157 471.448 370.85 471.785 371.716 471.785C372.588 471.785 373.281 471.444 373.794 470.764C374.307 470.078 374.564 469.119 374.564 467.888C374.564 466.787 374.301 465.897 373.775 465.216C373.256 464.53 372.563 464.187 371.697 464.187C370.85 464.187 370.167 464.524 369.647 465.198C369.127 465.872 368.868 466.837 368.868 468.092ZM383.285 464.502C383.025 464.459 382.743 464.437 382.44 464.437C381.315 464.437 380.551 464.916 380.149 465.875V473H378.433V462.962H380.103L380.13 464.122C380.693 463.225 381.491 462.776 382.524 462.776C382.858 462.776 383.111 462.82 383.285 462.906V464.502ZM386.485 462.962L386.532 464.075C387.268 463.209 388.26 462.776 389.51 462.776C390.914 462.776 391.869 463.314 392.376 464.391C392.71 463.908 393.143 463.519 393.675 463.222C394.213 462.925 394.847 462.776 395.577 462.776C397.779 462.776 398.898 463.942 398.936 466.274V473H397.219V466.376C397.219 465.659 397.055 465.124 396.728 464.771C396.4 464.412 395.849 464.233 395.076 464.233C394.439 464.233 393.91 464.425 393.49 464.808C393.069 465.185 392.825 465.696 392.757 466.339V473H391.031V466.422C391.031 464.963 390.317 464.233 388.888 464.233C387.763 464.233 386.993 464.712 386.578 465.671V473H384.862V462.962H386.485Z" fill="black"/>
<path id="2nd clone" d="M613.973 252H605.123V250.766L609.798 245.571C610.491 244.785 610.967 244.148 611.227 243.66C611.493 243.165 611.626 242.655 611.626 242.129C611.626 241.424 611.413 240.846 610.986 240.394C610.559 239.943 609.99 239.717 609.279 239.717C608.425 239.717 607.76 239.961 607.284 240.45C606.814 240.932 606.579 241.606 606.579 242.472H604.863C604.863 241.229 605.262 240.224 606.06 239.457C606.864 238.69 607.937 238.307 609.279 238.307C610.534 238.307 611.527 238.638 612.257 239.299C612.987 239.955 613.352 240.83 613.352 241.925C613.352 243.255 612.504 244.838 610.81 246.675L607.191 250.599H613.973V252ZM617.591 241.962L617.647 243.224C618.414 242.259 619.416 241.776 620.653 241.776C622.774 241.776 623.844 242.973 623.863 245.367V252H622.146V245.357C622.14 244.634 621.973 244.099 621.646 243.752C621.324 243.406 620.82 243.233 620.133 243.233C619.577 243.233 619.088 243.381 618.667 243.678C618.247 243.975 617.919 244.365 617.684 244.847V252H615.968V241.962H617.591ZM626.034 246.897C626.034 245.357 626.399 244.12 627.128 243.187C627.858 242.246 628.814 241.776 629.995 241.776C631.17 241.776 632.101 242.178 632.788 242.982V237.75H634.504V252H632.927L632.843 250.924C632.157 251.765 631.201 252.186 629.977 252.186C628.814 252.186 627.864 251.709 627.128 250.757C626.399 249.804 626.034 248.561 626.034 247.027V246.897ZM627.75 247.092C627.75 248.23 627.985 249.121 628.455 249.764C628.925 250.407 629.575 250.729 630.403 250.729C631.492 250.729 632.287 250.24 632.788 249.263V244.652C632.274 243.706 631.486 243.233 630.422 243.233C629.581 243.233 628.925 243.558 628.455 244.207C627.985 244.856 627.75 245.818 627.75 247.092ZM645.915 250.785C646.527 250.785 647.062 250.599 647.52 250.228C647.978 249.857 648.231 249.393 648.281 248.836H649.904C649.873 249.412 649.675 249.959 649.311 250.479C648.946 250.998 648.457 251.412 647.845 251.722C647.239 252.031 646.595 252.186 645.915 252.186C644.548 252.186 643.46 251.731 642.649 250.822C641.845 249.906 641.443 248.657 641.443 247.074V246.786C641.443 245.809 641.623 244.94 641.981 244.179C642.34 243.418 642.854 242.828 643.521 242.407C644.196 241.987 644.99 241.776 645.906 241.776C647.031 241.776 647.965 242.113 648.708 242.788C649.456 243.462 649.855 244.337 649.904 245.413H648.281C648.231 244.764 647.984 244.232 647.539 243.817C647.099 243.397 646.555 243.187 645.906 243.187C645.034 243.187 644.356 243.502 643.874 244.133C643.398 244.757 643.16 245.664 643.16 246.851V247.176C643.16 248.332 643.398 249.223 643.874 249.848C644.35 250.472 645.031 250.785 645.915 250.785ZM653.699 252H651.982V237.75H653.699V252ZM656 246.888C656 245.905 656.191 245.02 656.575 244.235C656.964 243.449 657.502 242.843 658.189 242.417C658.882 241.99 659.67 241.776 660.555 241.776C661.922 241.776 663.026 242.25 663.867 243.196C664.714 244.142 665.138 245.401 665.138 246.972V247.092C665.138 248.069 664.949 248.948 664.572 249.727C664.201 250.5 663.666 251.103 662.967 251.536C662.274 251.969 661.476 252.186 660.573 252.186C659.213 252.186 658.109 251.712 657.261 250.766C656.42 249.82 656 248.567 656 247.009V246.888ZM657.725 247.092C657.725 248.206 657.982 249.099 658.495 249.773C659.015 250.448 659.707 250.785 660.573 250.785C661.445 250.785 662.138 250.444 662.651 249.764C663.165 249.078 663.421 248.119 663.421 246.888C663.421 245.787 663.159 244.897 662.633 244.216C662.113 243.53 661.421 243.187 660.555 243.187C659.707 243.187 659.024 243.524 658.504 244.198C657.985 244.872 657.725 245.837 657.725 247.092ZM668.914 241.962L668.969 243.224C669.736 242.259 670.738 241.776 671.975 241.776C674.097 241.776 675.167 242.973 675.185 245.367V252H673.469V245.357C673.463 244.634 673.296 244.099 672.968 243.752C672.646 243.406 672.142 243.233 671.456 243.233C670.899 243.233 670.41 243.381 669.99 243.678C669.569 243.975 669.241 244.365 669.006 244.847V252H667.29V241.962H668.914ZM681.939 252.186C680.578 252.186 679.471 251.74 678.618 250.85C677.764 249.953 677.337 248.756 677.337 247.259V246.944C677.337 245.948 677.526 245.061 677.903 244.281C678.287 243.496 678.819 242.883 679.499 242.444C680.186 241.999 680.928 241.776 681.726 241.776C683.031 241.776 684.045 242.206 684.769 243.066C685.492 243.926 685.854 245.156 685.854 246.758V247.473H679.054C679.078 248.462 679.366 249.263 679.917 249.875C680.473 250.482 681.178 250.785 682.032 250.785C682.638 250.785 683.151 250.661 683.572 250.414C683.992 250.166 684.36 249.838 684.676 249.43L685.724 250.247C684.883 251.539 683.621 252.186 681.939 252.186ZM681.726 243.187C681.033 243.187 680.451 243.44 679.981 243.947C679.511 244.448 679.221 245.153 679.109 246.062H684.138V245.933C684.088 245.061 683.853 244.386 683.433 243.91C683.012 243.428 682.443 243.187 681.726 243.187Z" fill="black"/>
<path id="Arrow 1" d="M105.504 206.065C105.54 206.339 105.791 206.532 106.065 206.496L110.527 205.91C110.801 205.874 110.993 205.623 110.958 205.349C110.922 205.076 110.67 204.883 110.397 204.919L106.431 205.439L105.91 201.473C105.874 201.199 105.623 201.007 105.349 201.042C105.076 201.078 104.883 201.33 104.919 201.603L105.504 206.065ZM201.603 80.6955L105.603 205.695L106.397 206.305L202.397 81.3045L201.603 80.6955Z" fill="black"/>
<path id="Arrow 2" d="M298.03 446.499C298.305 446.483 298.515 446.246 298.499 445.97L298.233 441.478C298.217 441.203 297.98 440.992 297.705 441.009C297.429 441.025 297.219 441.262 297.235 441.537L297.471 445.53L293.478 445.767C293.203 445.783 292.992 446.02 293.009 446.295C293.025 446.571 293.262 446.781 293.537 446.765L298.03 446.499ZM118.668 287.374L297.668 446.374L298.332 445.626L119.332 286.626L118.668 287.374Z" fill="black"/>
<path id="Arrow 3" d="M565.354 246.354C565.549 246.158 565.549 245.842 565.354 245.646L562.172 242.464C561.976 242.269 561.66 242.269 561.464 242.464C561.269 242.66 561.269 242.976 561.464 243.172L564.293 246L561.464 248.828C561.269 249.024 561.269 249.34 561.464 249.536C561.66 249.731 561.976 249.731 562.172 249.536L565.354 246.354ZM162 246.5H565V245.5H162V246.5Z" fill="black"/>
<path id="Arrow 4" d="M363.886 45.5132C363.617 45.5762 363.45 45.8453 363.513 46.1141L364.54 50.4953C364.603 50.7642 364.872 50.931 365.141 50.868C365.41 50.805 365.577 50.5359 365.514 50.2671L364.601 46.3727L368.495 45.4596C368.764 45.3966 368.931 45.1276 368.868 44.8587C368.805 44.5899 368.536 44.423 368.267 44.486L363.886 45.5132ZM622.264 205.575L364.264 45.5751L363.736 46.4249L621.736 206.425L622.264 205.575Z" fill="black"/>
<path id="Arrow 5" d="M58.9557 286.502C58.6807 286.526 58.4775 286.769 58.502 287.044L58.9002 291.527C58.9246 291.802 59.1674 292.005 59.4424 291.98C59.7175 291.956 59.9207 291.713 59.8962 291.438L59.5423 287.454L63.5266 287.1C63.8016 287.075 64.0048 286.833 63.9804 286.558C63.9559 286.282 63.7132 286.079 63.4381 286.104L58.9557 286.502ZM298.321 486.617L59.3209 286.617L58.6791 287.383L297.679 487.383L298.321 486.617Z" fill="black"/>
<path id="1. React renders" d="M83.3823 177.613L82.2759 178.937L73.4975 171.603L72.2542 175.074L71.0581 174.074L72.7938 169.117L72.9663 168.911L83.3823 177.613ZM86.0524 173.013C85.8246 172.823 85.6902 172.598 85.6494 172.338C85.6125 172.074 85.7071 171.806 85.9331 171.536C86.1591 171.265 86.4056 171.124 86.6725 171.114C86.9433 171.098 87.1926 171.185 87.4205 171.376C87.6388 171.558 87.7621 171.782 87.7902 172.047C87.8224 172.308 87.7254 172.574 87.4994 172.844C87.2734 173.115 87.0293 173.257 86.7672 173.272C86.509 173.282 86.2707 173.196 86.0524 173.013ZM92.1082 158.646L90.074 161.081L94.2674 164.584L93.1194 165.958L82.7533 157.298L85.6203 153.866C86.5958 152.698 87.6111 152.023 88.6661 151.841C89.7251 151.654 90.7625 151.985 91.7782 152.833C92.4237 153.372 92.8394 154.018 93.0254 154.77C93.2153 155.517 93.1692 156.3 92.887 157.12L99.3212 158.361L99.4066 158.433L98.1813 159.899L92.1082 158.646ZM88.9562 160.147L90.7109 158.046C91.278 157.368 91.5524 156.682 91.5343 155.99C91.5201 155.293 91.2188 154.699 90.6302 154.207C89.9894 153.672 89.3376 153.454 88.6746 153.553C88.0157 153.647 87.3824 154.053 86.7749 154.77L85.0262 156.863L88.9562 160.147ZM103.273 154.095C102.4 155.139 101.349 155.703 100.118 155.787C98.8824 155.867 97.6904 155.427 96.5418 154.468L96.2997 154.265C95.5355 153.627 94.9754 152.913 94.6192 152.124C94.2623 151.326 94.1334 150.525 94.2326 149.722C94.331 148.909 94.636 148.197 95.1476 147.585C95.9843 146.583 96.9645 146.08 98.0882 146.076C99.2119 146.072 100.388 146.584 101.618 147.611L102.166 148.069L97.8059 153.287C98.5812 153.903 99.3803 154.196 100.203 154.166C101.025 154.127 101.71 153.78 102.257 153.125C102.646 152.66 102.88 152.187 102.96 151.706C103.039 151.224 103.024 150.732 102.913 150.228L104.211 149.947C104.664 151.421 104.351 152.804 103.273 154.095ZM96.2297 148.489C95.7856 149.02 95.6075 149.629 95.6953 150.315C95.7784 150.997 96.1331 151.672 96.7594 152.34L99.9833 148.482L99.8837 148.398C99.1827 147.877 98.5147 147.625 97.8795 147.643C97.2397 147.656 96.6897 147.938 96.2297 148.489ZM110.893 144.685C110.677 144.634 110.355 144.469 109.926 144.192C110.051 145.335 109.758 146.332 109.048 147.182C108.414 147.941 107.679 148.387 106.843 148.519C106.007 148.642 105.259 148.428 104.599 147.877C103.797 147.207 103.429 146.384 103.495 145.407C103.56 144.422 104.055 143.377 104.979 142.271L106.05 140.989L105.444 140.484C104.984 140.099 104.504 139.931 104.003 139.981C103.498 140.026 103.021 140.317 102.573 140.853C102.18 141.323 101.97 141.816 101.941 142.332C101.913 142.849 102.067 143.247 102.404 143.529L101.298 144.853C100.914 144.532 100.656 144.087 100.526 143.52C100.396 142.943 100.42 142.335 100.6 141.695C100.784 141.051 101.11 140.449 101.578 139.888C102.319 139.001 103.123 138.492 103.99 138.362C104.851 138.227 105.679 138.476 106.474 139.107L110.019 142.069C110.726 142.66 111.364 143.04 111.933 143.208L112.046 143.304L110.893 144.685ZM108.063 146.032C108.408 145.619 108.628 145.138 108.724 144.589C108.819 144.041 108.766 143.541 108.563 143.089L106.982 141.768L106.12 142.801C104.771 144.415 104.57 145.616 105.514 146.405C105.927 146.75 106.365 146.882 106.827 146.801C107.29 146.72 107.702 146.464 108.063 146.032ZM115.194 137.64C115.587 137.17 115.787 136.641 115.796 136.052C115.805 135.463 115.611 134.971 115.216 134.576L116.257 133.33C116.678 133.722 116.972 134.225 117.136 134.838C117.301 135.451 117.306 136.092 117.151 136.76C116.999 137.424 116.705 138.016 116.269 138.538C115.393 139.587 114.346 140.131 113.129 140.17C111.911 140.2 110.694 139.708 109.479 138.693L109.259 138.508C108.509 137.882 107.957 137.187 107.603 136.424C107.249 135.661 107.125 134.888 107.231 134.106C107.34 133.319 107.688 132.574 108.275 131.872C108.997 131.008 109.854 130.507 110.848 130.37C111.845 130.228 112.772 130.483 113.63 131.135L112.589 132.381C112.059 132.002 111.492 131.851 110.888 131.927C110.284 131.995 109.774 132.278 109.357 132.776C108.798 133.445 108.606 134.167 108.781 134.942C108.955 135.708 109.498 136.471 110.409 137.233L110.658 137.441C111.546 138.183 112.382 138.571 113.167 138.606C113.951 138.641 114.627 138.319 115.194 137.64ZM111.846 124.096L113.711 125.654L114.913 124.216L115.931 125.067L114.729 126.505L119.507 130.496C119.815 130.754 120.101 130.884 120.365 130.887C120.624 130.886 120.882 130.731 121.14 130.422C121.267 130.27 121.413 130.038 121.578 129.724L122.646 130.616C122.452 131.042 122.217 131.419 121.944 131.746C121.452 132.335 120.903 132.63 120.298 132.632C119.692 132.633 119.061 132.36 118.406 131.813L113.629 127.822L112.457 129.225L111.439 128.374L112.611 126.971L110.746 125.413L111.846 124.096ZM123.518 116.318C123.318 116.49 123.121 116.692 122.927 116.925C122.205 117.788 122.083 118.682 122.561 119.605L128.029 124.173L126.929 125.49L119.225 119.054L120.296 117.773L121.204 118.495C120.876 117.488 121.044 116.588 121.706 115.796C121.92 115.539 122.116 115.373 122.293 115.295L123.518 116.318ZM133.751 117.614C132.879 118.658 131.827 119.222 130.596 119.306C129.361 119.386 128.169 118.946 127.02 117.987L126.778 117.785C126.014 117.146 125.454 116.432 125.098 115.643C124.741 114.845 124.612 114.045 124.711 113.241C124.809 112.429 125.114 111.716 125.626 111.104C126.463 110.102 127.443 109.6 128.567 109.596C129.69 109.591 130.867 110.103 132.096 111.13L132.644 111.588L128.284 116.807C129.06 117.422 129.859 117.715 130.681 117.685C131.503 117.646 132.188 117.3 132.735 116.645C133.124 116.179 133.358 115.706 133.438 115.225C133.518 114.743 133.502 114.251 133.391 113.747L134.69 113.466C135.142 114.94 134.829 116.323 133.751 117.614ZM126.708 112.008C126.264 112.54 126.086 113.148 126.174 113.834C126.257 114.516 126.611 115.191 127.238 115.86L130.462 112.001L130.362 111.918C129.661 111.396 128.993 111.145 128.358 111.162C127.718 111.175 127.168 111.457 126.708 112.008ZM130.735 105.278L131.739 106.044C131.49 104.837 131.762 103.759 132.556 102.81C133.916 101.182 135.52 101.128 137.369 102.648L142.459 106.901L141.359 108.218L136.261 103.959C135.702 103.5 135.184 103.285 134.708 103.315C134.236 103.34 133.78 103.615 133.34 104.142C132.983 104.569 132.784 105.039 132.742 105.553C132.7 106.066 132.789 106.567 133.009 107.057L138.498 111.643L137.397 112.96L129.694 106.524L130.735 105.278ZM139.935 101.964C138.754 100.976 138.038 99.9031 137.789 98.7443C137.536 97.5814 137.788 96.5467 138.545 95.6402C139.299 94.7384 140.204 94.2818 141.261 94.2704L137.246 90.9157L138.346 89.5986L149.282 98.7349L148.271 99.9453L147.391 99.3193C147.597 100.385 147.307 101.388 146.522 102.328C145.776 103.221 144.802 103.644 143.599 103.598C142.4 103.547 141.212 103.03 140.035 102.047L139.935 101.964ZM141.185 100.771C142.059 101.501 142.893 101.892 143.688 101.943C144.483 101.995 145.146 101.703 145.677 101.067C146.375 100.232 146.51 99.3083 146.081 98.2973L142.543 95.3411C141.487 95.1284 140.619 95.4302 139.937 96.2465C139.397 96.8921 139.226 97.6034 139.423 98.3805C139.62 99.1575 140.208 99.9545 141.185 100.771ZM153.808 93.6068C152.936 94.651 151.884 95.2151 150.653 95.299C149.418 95.379 148.226 94.9392 147.077 93.9796L146.835 93.7774C146.071 93.1389 145.511 92.4251 145.155 91.6359C144.798 90.8381 144.669 90.0373 144.768 89.2336C144.867 88.4213 145.172 87.709 145.683 87.0967C146.52 86.0952 147.5 85.5924 148.624 85.5882C149.747 85.5841 150.924 86.0956 152.153 87.1226L152.701 87.5806L148.341 92.7993C149.117 93.4148 149.916 93.7076 150.739 93.6777C151.561 93.6392 152.245 93.2924 152.792 92.6374C153.181 92.1722 153.415 91.699 153.495 91.2176C153.575 90.7362 153.559 90.2437 153.448 89.7399L154.747 89.4588C155.2 90.9331 154.887 92.3157 153.808 93.6068ZM146.765 88.0008C146.321 88.5324 146.143 89.1411 146.231 89.827C146.314 90.509 146.669 91.1841 147.295 91.8524L150.519 87.9936L150.419 87.9104C149.718 87.3892 149.05 87.1373 148.415 87.1547C147.775 87.1682 147.225 87.4502 146.765 88.0008ZM154.044 79.7806C153.844 79.9521 153.647 80.1542 153.453 80.3868C152.731 81.2506 152.609 82.1441 153.087 83.0673L158.555 87.6355L157.455 88.9526L149.751 82.5167L150.822 81.2352L151.73 81.9573C151.402 80.9504 151.57 80.0507 152.232 79.258C152.446 79.0017 152.642 78.8349 152.819 78.7575L154.044 79.7806ZM163.287 77.8192C162.931 77.5217 162.542 77.427 162.122 77.535C161.7 77.6342 161.139 77.959 160.437 78.5093C159.74 79.0548 159.127 79.4413 158.598 79.6687C158.074 79.8913 157.595 79.9826 157.161 79.9425C156.731 79.8976 156.326 79.7165 155.946 79.3993C155.315 78.8719 155.003 78.16 155.01 77.2635C155.022 76.3624 155.375 75.4965 156.069 74.6659C156.798 73.7925 157.615 73.2737 158.517 73.1093C159.424 72.9402 160.229 73.1491 160.932 73.736L159.825 75.0602C159.464 74.7588 159.025 74.6533 158.506 74.7438C157.991 74.8294 157.539 75.1048 157.151 75.57C156.75 76.0494 156.541 76.5116 156.524 76.9566C156.507 77.4016 156.667 77.7649 157.004 78.0465C157.322 78.3121 157.667 78.3866 158.038 78.2699C158.41 78.1531 158.943 77.8287 159.637 77.2967C160.335 76.7598 160.957 76.3726 161.502 76.1349C162.047 75.8972 162.546 75.8021 162.998 75.8493C163.449 75.8879 163.882 76.0797 164.295 76.4247C164.983 76.9997 165.306 77.737 165.263 78.6365C165.216 79.5321 164.826 80.4189 164.092 81.297C163.577 81.914 163.012 82.3686 162.397 82.6609C161.782 82.9531 161.167 83.0719 160.552 83.0173C159.936 82.9539 159.4 82.7319 158.944 82.3513L160.045 81.0341C160.506 81.3792 161.004 81.497 161.538 81.3876C162.072 81.2695 162.565 80.9399 163.017 80.3988C163.434 79.9004 163.667 79.4185 163.718 78.9529C163.767 78.4786 163.624 78.1007 163.287 77.8192Z" fill="black"/>
<path id="2. Form is generated" d="M156.87 310.16L150.378 304.145L151.216 303.24L158.177 302.607C159.219 302.501 160.001 302.358 160.524 302.176C161.055 301.993 161.5 301.71 161.857 301.324C162.336 300.807 162.573 300.237 162.566 299.616C162.56 298.995 162.296 298.443 161.775 297.959C161.148 297.379 160.495 297.107 159.813 297.141C159.141 297.176 158.51 297.511 157.922 298.146L156.662 296.979C157.507 296.067 158.483 295.601 159.59 295.581C160.701 295.565 161.748 296.013 162.733 296.925C163.654 297.778 164.157 298.695 164.243 299.677C164.333 300.654 164.006 301.544 163.262 302.347C162.358 303.322 160.66 303.908 158.169 304.104L152.848 304.524L157.822 309.133L156.87 310.16ZM158.972 310.881C159.174 310.663 159.406 310.54 159.667 310.513C159.933 310.49 160.196 310.598 160.454 310.837C160.713 311.077 160.841 311.33 160.838 311.597C160.839 311.869 160.739 312.113 160.538 312.331C160.344 312.54 160.114 312.651 159.848 312.666C159.586 312.685 159.326 312.574 159.067 312.335C158.809 312.095 158.679 311.844 158.677 311.581C158.681 311.323 158.779 311.09 158.972 310.881ZM175.182 318.993L171.024 315.141L166.97 319.517L165.663 318.306L174.843 308.397L180.982 314.084L179.986 315.16L175.154 310.683L172.014 314.072L176.172 317.925L175.182 318.993ZM176.161 321.063C176.829 320.342 177.571 319.823 178.386 319.508C179.205 319.196 180.012 319.117 180.806 319.271C181.604 319.429 182.327 319.808 182.976 320.409C183.979 321.338 184.467 322.435 184.441 323.701C184.42 324.971 183.875 326.182 182.807 327.335L182.725 327.423C182.061 328.14 181.326 328.656 180.52 328.971C179.722 329.286 178.92 329.365 178.113 329.208C177.31 329.055 176.578 328.671 175.916 328.057C174.917 327.133 174.429 326.035 174.451 324.765C174.477 323.5 175.019 322.295 176.079 321.152L176.161 321.063ZM177.288 322.386C176.531 323.202 176.112 324.032 176.03 324.876C175.953 325.723 176.232 326.441 176.868 327.03C177.507 327.623 178.247 327.844 179.086 327.694C179.929 327.539 180.769 327.01 181.605 326.107C182.353 325.3 182.766 324.468 182.842 323.611C182.928 322.754 182.653 322.032 182.018 321.443C181.396 320.868 180.666 320.65 179.827 320.792C178.987 320.933 178.141 321.465 177.288 322.386ZM190.304 329.55C190.143 329.341 189.951 329.134 189.729 328.928C188.903 328.163 188.017 327.996 187.07 328.426L182.228 333.653L180.969 332.486L187.791 325.123L189.016 326.257L188.248 327.127C189.271 326.852 190.161 327.065 190.918 327.767C191.163 327.994 191.32 328.198 191.388 328.379L190.304 329.55ZM193.698 330.595L192.976 331.443C194.104 331.308 195.126 331.666 196.043 332.515C197.073 333.469 197.408 334.513 197.049 335.647C197.622 335.52 198.204 335.528 198.796 335.672C199.393 335.82 199.958 336.142 200.494 336.638C202.109 338.134 202.138 339.75 200.58 341.486L196.009 346.42L194.75 345.254L199.252 340.395C199.74 339.868 199.983 339.364 199.982 338.883C199.985 338.397 199.704 337.891 199.136 337.366C198.669 336.933 198.151 336.714 197.582 336.71C197.017 336.701 196.491 336.909 196.004 337.335L191.477 342.221L190.211 341.048L194.681 336.223C195.673 335.152 195.645 334.132 194.597 333.161C193.771 332.396 192.881 332.224 191.925 332.646L186.944 338.022L185.685 336.856L192.507 329.492L193.698 330.595ZM202.74 352.656L201.481 351.489L208.303 344.126L209.562 345.292L202.74 352.656ZM210.011 342.078C210.2 341.874 210.421 341.758 210.673 341.731C210.931 341.708 211.182 341.81 211.427 342.037C211.672 342.264 211.793 342.507 211.79 342.765C211.786 343.023 211.69 343.255 211.501 343.459C211.312 343.663 211.091 343.774 210.838 343.793C210.584 343.811 210.335 343.707 210.09 343.48C209.845 343.253 209.722 343.012 209.721 342.759C209.725 342.509 209.821 342.282 210.011 342.078ZM210.858 356.547C211.174 356.207 211.288 355.824 211.202 355.399C211.124 354.973 210.829 354.395 210.315 353.666C209.806 352.942 209.451 352.31 209.251 351.77C209.056 351.235 208.989 350.752 209.052 350.321C209.119 349.894 209.32 349.499 209.656 349.136C210.215 348.532 210.942 348.257 211.837 348.311C212.737 348.368 213.583 348.765 214.377 349.5C215.212 350.274 215.688 351.115 215.806 352.026C215.929 352.94 215.679 353.733 215.057 354.404L213.791 353.232C214.11 352.887 214.238 352.453 214.175 351.93C214.115 351.412 213.864 350.947 213.419 350.535C212.961 350.11 212.51 349.878 212.066 349.838C211.623 349.798 211.252 349.939 210.953 350.261C210.672 350.565 210.58 350.906 210.677 351.283C210.775 351.66 211.071 352.209 211.567 352.929C212.067 353.654 212.422 354.295 212.632 354.852C212.841 355.408 212.911 355.911 212.84 356.36C212.779 356.809 212.565 357.231 212.199 357.625C211.59 358.283 210.837 358.568 209.941 358.48C209.049 358.387 208.183 357.952 207.344 357.174C206.754 356.628 206.329 356.04 206.069 355.411C205.808 354.782 205.721 354.161 205.807 353.55C205.902 352.938 206.151 352.414 206.555 351.978L207.814 353.145C207.445 353.588 207.302 354.079 207.384 354.619C207.475 355.158 207.779 355.667 208.296 356.146C208.772 356.588 209.242 356.845 209.704 356.92C210.175 356.994 210.56 356.87 210.858 356.547ZM218.574 360.369C219.637 359.221 220.747 358.555 221.904 358.371C223.066 358.182 224.084 358.493 224.96 359.304C225.858 360.137 226.265 361.104 226.18 362.206L226.998 361.446L228.148 362.511L221.49 369.698C220.607 370.651 219.628 371.139 218.552 371.162C217.481 371.19 216.469 370.763 215.516 369.88C214.986 369.388 214.571 368.793 214.273 368.096C213.975 367.398 213.875 366.728 213.973 366.085L215.326 365.935C215.249 367.102 215.6 368.047 216.38 368.77C216.993 369.338 217.629 369.607 218.288 369.577C218.953 369.552 219.575 369.226 220.155 368.6L220.741 367.967C219.7 368.081 218.743 367.735 217.872 366.928C217.01 366.129 216.633 365.135 216.741 363.945C216.853 362.759 217.464 361.567 218.574 360.369ZM219.707 361.685C218.938 362.515 218.503 363.326 218.402 364.117C218.305 364.905 218.563 365.582 219.175 366.149C219.969 366.885 220.886 367.064 221.927 366.688L225.041 363.326C225.307 362.265 225.054 361.378 224.283 360.663C223.671 360.096 222.971 359.89 222.185 360.047C221.399 360.204 220.573 360.75 219.707 361.685ZM226.161 374.607C225.163 373.683 224.654 372.603 224.633 371.37C224.616 370.132 225.117 368.964 226.134 367.866L226.348 367.635C227.025 366.904 227.766 366.381 228.573 366.066C229.388 365.751 230.194 365.663 230.992 365.803C231.798 365.943 232.494 366.284 233.079 366.826C234.036 367.713 234.488 368.718 234.435 369.84C234.381 370.963 233.81 372.112 232.722 373.287L232.236 373.811L227.248 369.189C226.593 369.932 226.26 370.715 226.248 371.538C226.244 372.361 226.555 373.063 227.181 373.643C227.626 374.055 228.087 374.313 228.563 374.417C229.04 374.521 229.533 374.531 230.042 374.446L230.256 375.757C228.76 376.134 227.395 375.751 226.161 374.607ZM232.121 367.861C231.613 367.39 231.014 367.181 230.324 367.234C229.639 367.282 228.947 367.601 228.247 368.193L231.936 371.61L232.024 371.515C232.58 370.841 232.866 370.187 232.881 369.552C232.9 368.912 232.647 368.348 232.121 367.861ZM238.636 372.227L237.819 373.191C239.037 373.004 240.1 373.331 241.008 374.172C242.564 375.613 242.535 377.218 240.922 378.987L236.414 383.853L235.155 382.687L239.67 377.814C240.157 377.279 240.398 376.773 240.393 376.296C240.392 375.823 240.14 375.354 239.637 374.887C239.228 374.509 238.769 374.286 238.259 374.218C237.748 374.149 237.243 374.213 236.743 374.407L231.882 379.654L230.623 378.487L237.445 371.124L238.636 372.227ZM241.243 388.579C240.244 387.654 239.735 386.575 239.714 385.342C239.697 384.104 240.198 382.936 241.215 381.838L241.429 381.607C242.106 380.876 242.848 380.353 243.654 380.038C244.469 379.722 245.275 379.635 246.073 379.775C246.879 379.915 247.575 380.256 248.16 380.798C249.118 381.685 249.57 382.69 249.516 383.812C249.463 384.935 248.892 386.083 247.803 387.259L247.317 387.783L242.329 383.161C241.675 383.904 241.341 384.687 241.329 385.51C241.325 386.333 241.637 387.034 242.263 387.614C242.707 388.026 243.168 388.285 243.645 388.389C244.121 388.493 244.614 388.503 245.123 388.418L245.337 389.729C243.841 390.106 242.477 389.722 241.243 388.579ZM247.202 381.833C246.694 381.362 246.095 381.153 245.405 381.205C244.72 381.253 244.028 381.573 243.328 382.164L247.017 385.582L247.105 385.486C247.661 384.813 247.947 384.159 247.962 383.524C247.982 382.884 247.728 382.32 247.202 381.833ZM255.039 389.523C254.877 389.315 254.686 389.107 254.463 388.901C253.638 388.136 252.752 387.969 251.805 388.399L246.963 393.626L245.704 392.459L252.526 385.096L253.751 386.23L252.983 387.1C254.006 386.825 254.896 387.038 255.653 387.74C255.898 387.967 256.055 388.171 256.123 388.352L255.039 389.523ZM254.701 400.794C254.763 400.582 254.943 400.269 255.243 399.855C254.094 399.92 253.114 399.577 252.302 398.825C251.576 398.152 251.168 397.395 251.079 396.554C250.999 395.712 251.251 394.976 251.835 394.346C252.546 393.579 253.387 393.253 254.358 393.37C255.339 393.485 256.357 394.033 257.415 395.012L258.64 396.147L259.175 395.569C259.583 395.129 259.775 394.657 259.752 394.155C259.732 393.648 259.466 393.157 258.954 392.682C258.505 392.266 258.023 392.03 257.509 391.976C256.995 391.921 256.588 392.055 256.29 392.377L255.024 391.204C255.364 390.836 255.822 390.602 256.395 390.502C256.978 390.401 257.584 390.456 258.214 390.669C258.848 390.885 259.433 391.241 259.968 391.737C260.816 392.523 261.284 393.352 261.369 394.224C261.459 395.092 261.169 395.906 260.498 396.667L257.358 400.056C256.731 400.732 256.32 401.35 256.122 401.909L256.021 402.018L254.701 400.794ZM253.501 397.899C253.895 398.265 254.364 398.51 254.907 398.633C255.45 398.757 255.952 398.729 256.414 398.55L257.814 397.039L256.827 396.124C255.284 394.695 254.095 394.432 253.258 395.335C252.893 395.73 252.738 396.16 252.795 396.626C252.853 397.092 253.088 397.517 253.501 397.899ZM267.918 396.042L266.266 397.825L267.641 399.099L266.739 400.072L265.365 398.799L261.134 403.365C260.861 403.66 260.716 403.939 260.7 404.202C260.688 404.461 260.829 404.727 261.124 405C261.27 405.135 261.494 405.292 261.799 405.473L260.853 406.494C260.438 406.278 260.074 406.025 259.761 405.735C259.198 405.214 258.931 404.651 258.961 404.046C258.99 403.44 259.295 402.825 259.875 402.199L264.106 397.632L262.765 396.39L263.667 395.417L265.007 396.659L266.659 394.876L267.918 396.042ZM265.226 410.798C264.227 409.873 263.718 408.794 263.697 407.561C263.68 406.323 264.181 405.155 265.198 404.057L265.412 403.825C266.089 403.095 266.831 402.572 267.637 402.257C268.452 401.941 269.258 401.854 270.056 401.994C270.862 402.134 271.558 402.475 272.143 403.017C273.101 403.904 273.552 404.909 273.499 406.031C273.446 407.153 272.875 408.302 271.786 409.477L271.3 410.001L266.312 405.38C265.658 406.123 265.324 406.906 265.312 407.729C265.308 408.552 265.62 409.253 266.246 409.833C266.69 410.245 267.151 410.503 267.628 410.608C268.104 410.712 268.597 410.722 269.106 410.637L269.32 411.948C267.824 412.325 266.46 411.941 265.226 410.798ZM271.185 404.051C270.677 403.581 270.078 403.372 269.388 403.424C268.703 403.472 268.011 403.792 267.311 404.383L271 407.8L271.088 407.705C271.644 407.032 271.93 406.378 271.945 405.742C271.965 405.103 271.711 404.539 271.185 404.051ZM272.848 410.651C273.895 409.522 275.003 408.862 276.173 408.673C277.348 408.479 278.368 408.784 279.235 409.587C280.097 410.385 280.506 411.313 280.463 412.369L284.019 408.531L285.279 409.697L275.594 420.151L274.437 419.079L275.107 418.233C274.032 418.383 273.045 418.042 272.147 417.21C271.294 416.42 270.921 415.425 271.028 414.226C271.14 413.032 271.718 411.872 272.76 410.747L272.848 410.651ZM273.975 411.961C273.202 412.795 272.769 413.608 272.676 414.4C272.584 415.191 272.842 415.868 273.45 416.432C274.248 417.171 275.163 417.353 276.195 416.977L279.329 413.594C279.595 412.551 279.338 411.668 278.558 410.945C277.941 410.374 277.239 410.166 276.453 410.323C275.667 410.48 274.841 411.026 273.975 411.961Z" fill="black"/>
<path id="3. Form is modified" d="M105.148 339.396L106.102 340.264C106.709 340.8 107.324 341.071 107.946 341.077C108.568 341.082 109.116 340.824 109.591 340.303C110.656 339.131 110.606 338.015 109.439 336.954C108.89 336.454 108.307 336.213 107.691 336.229C107.083 336.244 106.544 336.511 106.073 337.028L104.804 335.873C105.524 335.081 106.409 334.687 107.46 334.69C108.52 334.692 109.496 335.099 110.388 335.911C111.33 336.768 111.842 337.69 111.924 338.675C112.006 339.661 111.643 340.597 110.835 341.485C110.44 341.92 109.915 342.212 109.261 342.361C108.612 342.514 107.953 342.471 107.285 342.231C107.676 342.904 107.837 343.577 107.768 344.251C107.703 344.928 107.407 345.557 106.878 346.138C106.063 347.035 105.123 347.48 104.059 347.473C102.994 347.467 101.993 347.037 101.055 346.183C100.117 345.33 99.5844 344.381 99.4562 343.337C99.3326 342.296 99.6495 341.359 100.407 340.527L101.683 341.688C101.205 342.214 100.993 342.791 101.049 343.419C101.105 344.047 101.422 344.623 101.998 345.147C102.611 345.705 103.226 345.971 103.842 345.947C104.458 345.922 105.039 345.61 105.584 345.011C106.112 344.429 106.34 343.821 106.266 343.185C106.192 342.55 105.823 341.921 105.159 341.3L104.205 340.433L105.148 339.396ZM106.85 349.988C107.05 349.768 107.281 349.643 107.542 349.614C107.808 349.588 108.071 349.694 108.332 349.931C108.593 350.168 108.723 350.42 108.722 350.687C108.726 350.959 108.629 351.204 108.429 351.424C108.237 351.634 108.008 351.748 107.742 351.765C107.48 351.786 107.219 351.678 106.958 351.441C106.698 351.203 106.565 350.954 106.562 350.691C106.563 350.433 106.659 350.198 106.85 349.988ZM123.133 357.952L118.94 354.138L114.926 358.551L113.608 357.352L122.698 347.36L128.888 352.991L127.902 354.076L123.029 349.643L119.92 353.061L124.113 356.875L123.133 357.952ZM124.13 360.013C124.792 359.286 125.529 358.761 126.341 358.438C127.158 358.119 127.964 358.033 128.759 358.179C129.559 358.329 130.286 358.702 130.94 359.297C131.951 360.217 132.449 361.31 132.435 362.576C132.425 363.846 131.891 365.062 130.834 366.224L130.753 366.314C130.095 367.037 129.365 367.559 128.561 367.882C127.766 368.204 126.965 368.29 126.157 368.14C125.353 367.994 124.617 367.617 123.949 367.01C122.943 366.094 122.444 365.001 122.454 363.731C122.469 362.465 123 361.256 124.049 360.103L124.13 360.013ZM125.27 361.326C124.52 362.149 124.109 362.983 124.035 363.827C123.966 364.675 124.251 365.391 124.892 365.974C125.537 366.56 126.278 366.775 127.116 366.617C127.957 366.455 128.792 365.918 129.621 365.008C130.361 364.193 130.766 363.358 130.835 362.501C130.913 361.643 130.631 360.923 129.991 360.341C129.364 359.77 128.632 359.56 127.794 359.709C126.956 359.858 126.114 360.397 125.27 361.326ZM138.35 368.371C138.187 368.164 137.993 367.959 137.769 367.755C136.937 366.998 136.049 366.838 135.107 367.277L130.312 372.547L129.042 371.392L135.797 363.967L137.032 365.091L136.273 365.967C137.293 365.683 138.184 365.888 138.948 366.583C139.196 366.808 139.354 367.01 139.424 367.191L138.35 368.371ZM141.754 369.386L141.039 370.241C142.166 370.095 143.192 370.443 144.116 371.284C145.155 372.229 145.499 373.27 145.15 374.407C145.722 374.275 146.304 374.278 146.898 374.416C147.495 374.559 148.064 374.876 148.604 375.367C150.233 376.848 150.276 378.464 148.735 380.214L144.209 385.189L142.939 384.034L147.397 379.134C147.879 378.604 148.118 378.098 148.113 377.616C148.112 377.13 147.825 376.627 147.253 376.107C146.782 375.678 146.262 375.464 145.693 375.465C145.128 375.461 144.604 375.674 144.121 376.104L139.638 381.031L138.362 379.87L142.788 375.005C143.77 373.925 143.733 372.904 142.676 371.943C141.843 371.185 140.951 371.022 140 371.452L135.068 376.874L133.798 375.719L140.553 368.293L141.754 369.386ZM150.996 391.363L149.726 390.208L156.481 382.783L157.751 383.938L150.996 391.363ZM158.17 380.72C158.357 380.514 158.577 380.396 158.83 380.367C159.087 380.342 159.339 380.441 159.586 380.666C159.833 380.891 159.956 381.132 159.955 381.391C159.954 381.649 159.86 381.881 159.673 382.087C159.486 382.293 159.265 382.406 159.012 382.427C158.759 382.448 158.509 382.346 158.262 382.121C158.015 381.896 157.89 381.657 157.887 381.403C157.888 381.153 157.983 380.926 158.17 380.72ZM159.149 395.181C159.461 394.838 159.572 394.454 159.482 394.029C159.401 393.604 159.1 393.029 158.58 392.305C158.064 391.585 157.704 390.956 157.499 390.419C157.299 389.885 157.228 389.403 157.286 388.971C157.349 388.543 157.547 388.146 157.88 387.78C158.433 387.172 159.158 386.89 160.053 386.936C160.953 386.985 161.803 387.374 162.604 388.102C163.446 388.868 163.93 389.705 164.056 390.614C164.187 391.528 163.944 392.323 163.328 393L162.052 391.839C162.368 391.491 162.492 391.056 162.423 390.534C162.359 390.016 162.103 389.553 161.655 389.145C161.193 388.725 160.74 388.497 160.296 388.461C159.852 388.425 159.482 388.569 159.187 388.894C158.908 389.201 158.819 389.542 158.92 389.918C159.021 390.294 159.323 390.84 159.825 391.557C160.332 392.277 160.693 392.914 160.907 393.469C161.122 394.024 161.196 394.526 161.129 394.976C161.072 395.425 160.862 395.849 160.5 396.247C159.897 396.91 159.146 397.202 158.249 397.121C157.357 397.037 156.487 396.609 155.641 395.839C155.046 395.298 154.615 394.715 154.349 394.088C154.083 393.461 153.991 392.842 154.071 392.229C154.16 391.617 154.405 391.091 154.804 390.651L156.074 391.806C155.71 392.253 155.571 392.745 155.658 393.284C155.753 393.822 156.062 394.329 156.583 394.803C157.064 395.24 157.535 395.494 157.998 395.564C158.47 395.633 158.854 395.506 159.149 395.181ZM171.716 396.642L171.001 397.497C172.128 397.352 173.154 397.7 174.078 398.54C175.117 399.485 175.462 400.526 175.112 401.663C175.684 401.531 176.267 401.534 176.86 401.673C177.458 401.815 178.026 402.132 178.566 402.623C180.195 404.105 180.239 405.72 178.697 407.47L174.171 412.446L172.901 411.291L177.359 406.391C177.842 405.86 178.08 405.354 178.075 404.873C178.074 404.387 177.788 403.884 177.216 403.363C176.744 402.935 176.224 402.721 175.655 402.721C175.09 402.717 174.566 402.93 174.083 403.36L169.6 408.288L168.324 407.127L172.75 402.261C173.732 401.181 173.695 400.161 172.638 399.199C171.806 398.442 170.913 398.278 169.962 398.709L165.03 404.13L163.76 402.975L170.515 395.55L171.716 396.642ZM179.196 410.106C179.858 409.379 180.595 408.854 181.407 408.531C182.224 408.212 183.03 408.126 183.825 408.272C184.624 408.422 185.351 408.795 186.005 409.39C187.017 410.31 187.515 411.403 187.5 412.669C187.49 413.939 186.957 415.155 185.9 416.317L185.818 416.407C185.161 417.129 184.43 417.652 183.627 417.975C182.832 418.297 182.031 418.383 181.222 418.233C180.418 418.087 179.683 417.71 179.015 417.103C178.008 416.187 177.51 415.094 177.52 413.824C177.534 412.558 178.066 411.349 179.115 410.196L179.196 410.106ZM180.335 411.419C179.586 412.242 179.174 413.076 179.101 413.92C179.031 414.768 179.317 415.484 179.957 416.066C180.602 416.653 181.344 416.868 182.181 416.71C183.023 416.548 183.858 416.011 184.686 415.101C185.427 414.286 185.832 413.451 185.901 412.594C185.978 411.736 185.697 411.016 185.057 410.433C184.43 409.863 183.697 409.653 182.859 409.802C182.021 409.951 181.18 410.49 180.335 411.419ZM187.233 417.43C188.269 416.291 189.371 415.621 190.54 415.422C191.712 415.217 192.735 415.513 193.609 416.307C194.478 417.098 194.896 418.022 194.863 419.079L198.384 415.208L199.654 416.363L190.065 426.904L188.898 425.843L189.561 424.991C188.487 425.151 187.497 424.819 186.591 423.995C185.731 423.212 185.349 422.221 185.446 421.021C185.547 419.826 186.113 418.661 187.145 417.526L187.233 417.43ZM188.371 418.729C187.605 419.571 187.18 420.388 187.095 421.18C187.01 421.972 187.274 422.647 187.887 423.205C188.692 423.937 189.609 424.11 190.637 423.725L193.74 420.314C193.997 419.269 193.732 418.388 192.945 417.672C192.323 417.106 191.619 416.905 190.834 417.069C190.05 417.233 189.229 417.787 188.371 418.729ZM193.421 429.957L192.151 428.802L198.906 421.377L200.175 422.532L193.421 429.957ZM200.595 419.313C200.782 419.108 201.002 418.99 201.254 418.96C201.511 418.935 201.764 419.035 202.011 419.26C202.258 419.484 202.381 419.726 202.38 419.984C202.379 420.243 202.285 420.475 202.097 420.681C201.91 420.886 201.69 421 201.437 421.02C201.184 421.041 200.934 420.939 200.687 420.714C200.44 420.49 200.315 420.25 200.312 419.997C200.313 419.747 200.407 419.519 200.595 419.313ZM195.884 432.198L201.746 425.754L200.573 424.687L201.466 423.705L202.639 424.773L203.213 424.141C203.967 423.313 204.789 422.883 205.681 422.849C206.577 422.82 207.457 423.199 208.322 423.985C208.834 424.451 209.355 425.18 209.883 426.171L208.697 427.048C208.333 426.299 207.893 425.689 207.376 425.219C206.831 424.723 206.325 424.489 205.858 424.515C205.4 424.541 204.948 424.799 204.502 425.289L203.916 425.934L205.432 427.314L204.539 428.295L203.023 426.915L197.161 433.359L195.884 432.198ZM201.175 437.011L199.899 435.85L206.654 428.425L207.93 429.586L201.175 437.011ZM206.197 441.831C205.191 440.915 204.672 439.841 204.64 438.608C204.612 437.37 205.101 436.197 206.109 435.09L206.321 434.857C206.991 434.12 207.728 433.591 208.531 433.268C209.343 432.945 210.149 432.85 210.948 432.983C211.755 433.116 212.454 433.45 213.044 433.987C214.009 434.865 214.471 435.866 214.427 436.989C214.384 438.112 213.824 439.266 212.746 440.451L212.265 440.979L207.235 436.403C206.587 437.152 206.261 437.938 206.256 438.761C206.26 439.584 206.577 440.283 207.209 440.857C207.657 441.265 208.12 441.519 208.598 441.619C209.075 441.719 209.568 441.724 210.076 441.634L210.302 442.944C208.81 443.334 207.442 442.963 206.197 441.831ZM212.095 435.03C211.583 434.564 210.982 434.361 210.293 434.42C209.608 434.474 208.919 434.8 208.225 435.397L211.944 438.781L212.032 438.685C212.582 438.007 212.862 437.35 212.871 436.714C212.885 436.075 212.626 435.513 212.095 435.03ZM213.819 441.615C214.855 440.476 215.957 439.806 217.126 439.606C218.298 439.402 219.321 439.697 220.195 440.492C221.064 441.283 221.482 442.207 221.449 443.264L224.97 439.393L226.24 440.548L216.651 451.089L215.484 450.028L216.146 449.176C215.072 449.336 214.083 449.004 213.177 448.18C212.317 447.397 211.935 446.406 212.031 445.206C212.132 444.011 212.699 442.846 213.731 441.711L213.819 441.615ZM214.957 442.914C214.191 443.756 213.766 444.573 213.681 445.365C213.596 446.157 213.859 446.832 214.473 447.39C215.278 448.122 216.194 448.295 217.223 447.91L220.325 444.499C220.582 443.454 220.317 442.573 219.531 441.857C218.908 441.291 218.205 441.09 217.42 441.254C216.635 441.418 215.814 441.971 214.957 442.914Z" fill="black"/>
<path id="4. 2nd clone is created from modified form" d="M274.368 208.463H276.242V209.864H274.368V213H272.643V209.864H266.492V208.853L272.541 199.492H274.368V208.463ZM268.44 208.463H272.643V201.839L272.438 202.21L268.44 208.463ZM278.005 212.1C278.005 211.803 278.091 211.556 278.265 211.358C278.444 211.16 278.71 211.061 279.062 211.061C279.415 211.061 279.681 211.16 279.86 211.358C280.046 211.556 280.139 211.803 280.139 212.1C280.139 212.385 280.046 212.623 279.86 212.814C279.681 213.006 279.415 213.102 279.062 213.102C278.71 213.102 278.444 213.006 278.265 212.814C278.091 212.623 278.005 212.385 278.005 212.1ZM296.365 213H287.514V211.766L292.19 206.571C292.883 205.785 293.359 205.148 293.619 204.66C293.885 204.165 294.018 203.655 294.018 203.129C294.018 202.424 293.804 201.846 293.377 201.394C292.951 200.943 292.382 200.717 291.67 200.717C290.817 200.717 290.152 200.961 289.676 201.45C289.206 201.932 288.971 202.606 288.971 203.472H287.254C287.254 202.229 287.653 201.224 288.451 200.457C289.255 199.69 290.328 199.307 291.67 199.307C292.926 199.307 293.919 199.638 294.648 200.299C295.378 200.955 295.743 201.83 295.743 202.925C295.743 204.255 294.896 205.838 293.201 207.675L289.583 211.599H296.365V213ZM299.983 202.962L300.039 204.224C300.806 203.259 301.807 202.776 303.044 202.776C305.166 202.776 306.236 203.973 306.254 206.367V213H304.538V206.357C304.532 205.634 304.365 205.099 304.037 204.752C303.715 204.406 303.211 204.233 302.525 204.233C301.968 204.233 301.48 204.381 301.059 204.678C300.639 204.975 300.311 205.365 300.076 205.847V213H298.359V202.962H299.983ZM308.425 207.897C308.425 206.357 308.79 205.12 309.52 204.187C310.25 203.246 311.205 202.776 312.387 202.776C313.562 202.776 314.493 203.178 315.179 203.982V198.75H316.896V213H315.318L315.235 211.924C314.548 212.765 313.593 213.186 312.368 213.186C311.205 213.186 310.256 212.709 309.52 211.757C308.79 210.804 308.425 209.561 308.425 208.027V207.897ZM310.142 208.092C310.142 209.23 310.377 210.121 310.847 210.764C311.317 211.407 311.966 211.729 312.795 211.729C313.883 211.729 314.678 211.24 315.179 210.263V205.652C314.666 204.706 313.877 204.233 312.813 204.233C311.972 204.233 311.317 204.558 310.847 205.207C310.377 205.856 310.142 206.818 310.142 208.092ZM328.307 211.785C328.919 211.785 329.454 211.599 329.912 211.228C330.369 210.857 330.623 210.393 330.672 209.836H332.296C332.265 210.412 332.067 210.959 331.702 211.479C331.337 211.998 330.849 212.412 330.236 212.722C329.63 213.031 328.987 213.186 328.307 213.186C326.94 213.186 325.851 212.731 325.041 211.822C324.237 210.906 323.835 209.657 323.835 208.074V207.786C323.835 206.809 324.014 205.94 324.373 205.179C324.732 204.418 325.245 203.828 325.913 203.407C326.587 202.987 327.382 202.776 328.297 202.776C329.423 202.776 330.357 203.113 331.099 203.788C331.847 204.462 332.246 205.337 332.296 206.413H330.672C330.623 205.764 330.375 205.232 329.93 204.817C329.491 204.397 328.947 204.187 328.297 204.187C327.425 204.187 326.748 204.502 326.266 205.133C325.789 205.757 325.551 206.664 325.551 207.851V208.176C325.551 209.332 325.789 210.223 326.266 210.848C326.742 211.472 327.422 211.785 328.307 211.785ZM336.09 213H334.374V198.75H336.09V213ZM338.391 207.888C338.391 206.905 338.583 206.02 338.966 205.235C339.356 204.449 339.894 203.843 340.581 203.417C341.273 202.99 342.062 202.776 342.946 202.776C344.313 202.776 345.417 203.25 346.258 204.196C347.106 205.142 347.529 206.401 347.529 207.972V208.092C347.529 209.069 347.341 209.948 346.963 210.727C346.592 211.5 346.057 212.103 345.358 212.536C344.666 212.969 343.868 213.186 342.965 213.186C341.604 213.186 340.5 212.712 339.653 211.766C338.812 210.82 338.391 209.567 338.391 208.009V207.888ZM340.117 208.092C340.117 209.206 340.373 210.099 340.887 210.773C341.406 211.448 342.099 211.785 342.965 211.785C343.837 211.785 344.53 211.444 345.043 210.764C345.556 210.078 345.813 209.119 345.813 207.888C345.813 206.787 345.55 205.897 345.024 205.216C344.505 204.53 343.812 204.187 342.946 204.187C342.099 204.187 341.416 204.524 340.896 205.198C340.376 205.872 340.117 206.837 340.117 208.092ZM351.305 202.962L351.361 204.224C352.128 203.259 353.13 202.776 354.367 202.776C356.488 202.776 357.558 203.973 357.577 206.367V213H355.86V206.357C355.854 205.634 355.687 205.099 355.359 204.752C355.038 204.406 354.534 204.233 353.847 204.233C353.291 204.233 352.802 204.381 352.381 204.678C351.961 204.975 351.633 205.365 351.398 205.847V213H349.682V202.962H351.305ZM364.331 213.186C362.97 213.186 361.863 212.74 361.009 211.85C360.156 210.953 359.729 209.756 359.729 208.259V207.944C359.729 206.948 359.918 206.061 360.295 205.281C360.678 204.496 361.21 203.883 361.891 203.444C362.577 202.999 363.319 202.776 364.117 202.776C365.422 202.776 366.437 203.206 367.16 204.066C367.884 204.926 368.246 206.156 368.246 207.758V208.473H361.445C361.47 209.462 361.758 210.263 362.308 210.875C362.865 211.482 363.57 211.785 364.423 211.785C365.029 211.785 365.543 211.661 365.963 211.414C366.384 211.166 366.752 210.838 367.067 210.43L368.116 211.247C367.275 212.539 366.013 213.186 364.331 213.186ZM364.117 204.187C363.424 204.187 362.843 204.44 362.373 204.947C361.903 205.448 361.612 206.153 361.501 207.062H366.529V206.933C366.48 206.061 366.245 205.386 365.824 204.91C365.404 204.428 364.835 204.187 364.117 204.187ZM376.818 213H375.102V202.962H376.818V213ZM374.962 200.299C374.962 200.021 375.046 199.786 375.213 199.594C375.386 199.403 375.64 199.307 375.974 199.307C376.308 199.307 376.561 199.403 376.734 199.594C376.908 199.786 376.994 200.021 376.994 200.299C376.994 200.578 376.908 200.81 376.734 200.995C376.561 201.181 376.308 201.273 375.974 201.273C375.64 201.273 375.386 201.181 375.213 200.995C375.046 200.81 374.962 200.578 374.962 200.299ZM385.418 210.337C385.418 209.874 385.242 209.515 384.889 209.261C384.543 209.001 383.934 208.779 383.062 208.593C382.196 208.408 381.506 208.185 380.993 207.925C380.486 207.666 380.108 207.356 379.861 206.998C379.62 206.639 379.499 206.212 379.499 205.717C379.499 204.895 379.845 204.199 380.538 203.63C381.237 203.061 382.128 202.776 383.21 202.776C384.348 202.776 385.27 203.07 385.975 203.658C386.686 204.245 387.042 204.997 387.042 205.912H385.316C385.316 205.442 385.115 205.037 384.713 204.697C384.317 204.357 383.816 204.187 383.21 204.187C382.585 204.187 382.097 204.323 381.744 204.595C381.392 204.867 381.215 205.222 381.215 205.662C381.215 206.076 381.379 206.388 381.707 206.599C382.035 206.809 382.625 207.01 383.479 207.202C384.339 207.393 385.035 207.622 385.566 207.888C386.098 208.154 386.491 208.476 386.745 208.853C387.004 209.224 387.134 209.679 387.134 210.217C387.134 211.114 386.776 211.834 386.058 212.378C385.341 212.917 384.41 213.186 383.266 213.186C382.462 213.186 381.75 213.043 381.132 212.759C380.513 212.474 380.028 212.078 379.675 211.571C379.329 211.058 379.156 210.504 379.156 209.911H380.872C380.903 210.486 381.132 210.944 381.559 211.284C381.992 211.618 382.561 211.785 383.266 211.785C383.915 211.785 384.435 211.655 384.824 211.395C385.22 211.129 385.418 210.777 385.418 210.337ZM398.109 211.785C398.722 211.785 399.257 211.599 399.714 211.228C400.172 210.857 400.426 210.393 400.475 209.836H402.099C402.068 210.412 401.87 210.959 401.505 211.479C401.14 211.998 400.651 212.412 400.039 212.722C399.433 213.031 398.79 213.186 398.109 213.186C396.743 213.186 395.654 212.731 394.844 211.822C394.04 210.906 393.638 209.657 393.638 208.074V207.786C393.638 206.809 393.817 205.94 394.176 205.179C394.535 204.418 395.048 203.828 395.716 203.407C396.39 202.987 397.185 202.776 398.1 202.776C399.226 202.776 400.16 203.113 400.902 203.788C401.65 204.462 402.049 205.337 402.099 206.413H400.475C400.426 205.764 400.178 205.232 399.733 204.817C399.294 204.397 398.75 204.187 398.1 204.187C397.228 204.187 396.551 204.502 396.068 205.133C395.592 205.757 395.354 206.664 395.354 207.851V208.176C395.354 209.332 395.592 210.223 396.068 210.848C396.545 211.472 397.225 211.785 398.109 211.785ZM408.88 204.502C408.621 204.459 408.339 204.437 408.036 204.437C406.91 204.437 406.147 204.916 405.745 205.875V213H404.028V202.962H405.698L405.726 204.122C406.289 203.225 407.087 202.776 408.12 202.776C408.454 202.776 408.707 202.82 408.88 202.906V204.502ZM414.447 213.186C413.086 213.186 411.979 212.74 411.125 211.85C410.272 210.953 409.845 209.756 409.845 208.259V207.944C409.845 206.948 410.034 206.061 410.411 205.281C410.795 204.496 411.326 203.883 412.007 203.444C412.693 202.999 413.436 202.776 414.233 202.776C415.538 202.776 416.553 203.206 417.276 204.066C418 204.926 418.362 206.156 418.362 207.758V208.473H411.562C411.586 209.462 411.874 210.263 412.424 210.875C412.981 211.482 413.686 211.785 414.54 211.785C415.146 211.785 415.659 211.661 416.08 211.414C416.5 211.166 416.868 210.838 417.184 210.43L418.232 211.247C417.391 212.539 416.129 213.186 414.447 213.186ZM414.233 204.187C413.541 204.187 412.959 204.44 412.489 204.947C412.019 205.448 411.729 206.153 411.617 207.062H416.646V206.933C416.596 206.061 416.361 205.386 415.94 204.91C415.52 204.428 414.951 204.187 414.233 204.187ZM426.554 213C426.455 212.802 426.374 212.45 426.312 211.942C425.515 212.771 424.562 213.186 423.455 213.186C422.465 213.186 421.652 212.907 421.015 212.351C420.384 211.788 420.069 211.076 420.069 210.217C420.069 209.172 420.465 208.361 421.256 207.786C422.054 207.205 423.174 206.914 424.615 206.914H426.285V206.125C426.285 205.526 426.105 205.049 425.747 204.697C425.388 204.338 424.859 204.159 424.16 204.159C423.548 204.159 423.035 204.313 422.62 204.623C422.206 204.932 421.999 205.306 421.999 205.745H420.273C420.273 205.244 420.449 204.762 420.802 204.298C421.16 203.828 421.643 203.457 422.249 203.185C422.861 202.912 423.532 202.776 424.262 202.776C425.419 202.776 426.325 203.067 426.98 203.648C427.636 204.224 427.976 205.018 428.001 206.033V210.653C428.001 211.574 428.118 212.307 428.354 212.852V213H426.554ZM423.706 211.692C424.244 211.692 424.754 211.553 425.236 211.274C425.719 210.996 426.068 210.634 426.285 210.189V208.129H424.939C422.837 208.129 421.785 208.745 421.785 209.976C421.785 210.514 421.965 210.934 422.323 211.237C422.682 211.54 423.143 211.692 423.706 211.692ZM433.02 200.531V202.962H434.894V204.289H433.02V210.514C433.02 210.916 433.104 211.219 433.271 211.423C433.438 211.621 433.722 211.72 434.124 211.72C434.322 211.72 434.594 211.683 434.94 211.608V213C434.489 213.124 434.05 213.186 433.623 213.186C432.856 213.186 432.278 212.954 431.888 212.49C431.499 212.026 431.304 211.367 431.304 210.514V204.289H429.476V202.962H431.304V200.531H433.02ZM441.073 213.186C439.712 213.186 438.605 212.74 437.751 211.85C436.898 210.953 436.471 209.756 436.471 208.259V207.944C436.471 206.948 436.66 206.061 437.037 205.281C437.421 204.496 437.952 203.883 438.633 203.444C439.319 202.999 440.062 202.776 440.859 202.776C442.164 202.776 443.179 203.206 443.902 204.066C444.626 204.926 444.988 206.156 444.988 207.758V208.473H438.188C438.212 209.462 438.5 210.263 439.05 210.875C439.607 211.482 440.312 211.785 441.166 211.785C441.772 211.785 442.285 211.661 442.706 211.414C443.126 211.166 443.494 210.838 443.81 210.43L444.858 211.247C444.017 212.539 442.755 213.186 441.073 213.186ZM440.859 204.187C440.167 204.187 439.585 204.44 439.115 204.947C438.645 205.448 438.354 206.153 438.243 207.062H443.271V206.933C443.222 206.061 442.987 205.386 442.566 204.91C442.146 204.428 441.577 204.187 440.859 204.187ZM446.565 207.897C446.565 206.357 446.93 205.12 447.66 204.187C448.389 203.246 449.345 202.776 450.526 202.776C451.701 202.776 452.632 203.178 453.319 203.982V198.75H455.035V213H453.458L453.375 211.924C452.688 212.765 451.732 213.186 450.508 213.186C449.345 213.186 448.396 212.709 447.66 211.757C446.93 210.804 446.565 209.561 446.565 208.027V207.897ZM448.281 208.092C448.281 209.23 448.516 210.121 448.986 210.764C449.456 211.407 450.106 211.729 450.935 211.729C452.023 211.729 452.818 211.24 453.319 210.263V205.652C452.806 204.706 452.017 204.233 450.953 204.233C450.112 204.233 449.456 204.558 448.986 205.207C448.516 205.856 448.281 206.818 448.281 208.092ZM286.995 235V226.289H285.408V224.962H286.995V223.932C286.995 222.856 287.282 222.024 287.857 221.437C288.433 220.849 289.246 220.555 290.297 220.555C290.693 220.555 291.086 220.608 291.476 220.713L291.383 222.104C291.092 222.049 290.783 222.021 290.455 222.021C289.898 222.021 289.469 222.185 289.166 222.513C288.862 222.834 288.711 223.298 288.711 223.904V224.962H290.854V226.289H288.711V235H286.995ZM297.608 226.502C297.348 226.459 297.067 226.437 296.764 226.437C295.638 226.437 294.874 226.916 294.472 227.875V235H292.756V224.962H294.426L294.454 226.122C295.016 225.225 295.814 224.776 296.847 224.776C297.181 224.776 297.435 224.82 297.608 224.906V226.502ZM298.554 229.888C298.554 228.905 298.746 228.02 299.129 227.235C299.519 226.449 300.057 225.843 300.744 225.417C301.436 224.99 302.225 224.776 303.109 224.776C304.476 224.776 305.58 225.25 306.421 226.196C307.269 227.142 307.692 228.401 307.692 229.972V230.092C307.692 231.069 307.504 231.948 307.126 232.727C306.755 233.5 306.22 234.103 305.521 234.536C304.829 234.969 304.031 235.186 303.128 235.186C301.767 235.186 300.663 234.712 299.816 233.766C298.975 232.82 298.554 231.567 298.554 230.009V229.888ZM300.28 230.092C300.28 231.206 300.536 232.099 301.05 232.773C301.569 233.448 302.262 233.785 303.128 233.785C304 233.785 304.693 233.444 305.206 232.764C305.719 232.078 305.976 231.119 305.976 229.888C305.976 228.787 305.713 227.897 305.188 227.216C304.668 226.53 303.975 226.187 303.109 226.187C302.262 226.187 301.579 226.524 301.059 227.198C300.54 227.872 300.28 228.837 300.28 230.092ZM311.459 224.962L311.505 226.075C312.241 225.209 313.234 224.776 314.483 224.776C315.887 224.776 316.843 225.314 317.35 226.391C317.684 225.908 318.117 225.519 318.649 225.222C319.187 224.925 319.821 224.776 320.551 224.776C322.753 224.776 323.872 225.942 323.909 228.274V235H322.193V228.376C322.193 227.659 322.029 227.124 321.701 226.771C321.373 226.412 320.823 226.233 320.05 226.233C319.413 226.233 318.884 226.425 318.463 226.808C318.043 227.185 317.799 227.696 317.73 228.339V235H316.005V228.422C316.005 226.963 315.291 226.233 313.862 226.233C312.736 226.233 311.966 226.712 311.552 227.671V235H309.835V224.962H311.459ZM332.834 224.962L332.88 226.075C333.616 225.209 334.609 224.776 335.858 224.776C337.262 224.776 338.218 225.314 338.725 226.391C339.059 225.908 339.492 225.519 340.024 225.222C340.562 224.925 341.196 224.776 341.926 224.776C344.128 224.776 345.247 225.942 345.284 228.274V235H343.568V228.376C343.568 227.659 343.404 227.124 343.076 226.771C342.748 226.412 342.198 226.233 341.425 226.233C340.788 226.233 340.259 226.425 339.838 226.808C339.418 227.185 339.174 227.696 339.105 228.339V235H337.38V228.422C337.38 226.963 336.666 226.233 335.237 226.233C334.111 226.233 333.341 226.712 332.927 227.671V235H331.21V224.962H332.834ZM347.427 229.888C347.427 228.905 347.619 228.02 348.002 227.235C348.392 226.449 348.93 225.843 349.617 225.417C350.309 224.99 351.098 224.776 351.982 224.776C353.349 224.776 354.453 225.25 355.294 226.196C356.142 227.142 356.565 228.401 356.565 229.972V230.092C356.565 231.069 356.377 231.948 356 232.727C355.628 233.5 355.093 234.103 354.395 234.536C353.702 234.969 352.904 235.186 352.001 235.186C350.64 235.186 349.536 234.712 348.689 233.766C347.848 232.82 347.427 231.567 347.427 230.009V229.888ZM349.153 230.092C349.153 231.206 349.41 232.099 349.923 232.773C350.442 233.448 351.135 233.785 352.001 233.785C352.873 233.785 353.566 233.444 354.079 232.764C354.592 232.078 354.849 231.119 354.849 229.888C354.849 228.787 354.586 227.897 354.061 227.216C353.541 226.53 352.848 226.187 351.982 226.187C351.135 226.187 350.452 226.524 349.932 227.198C349.413 227.872 349.153 228.837 349.153 230.092ZM358.3 229.897C358.3 228.357 358.665 227.12 359.395 226.187C360.125 225.246 361.08 224.776 362.262 224.776C363.437 224.776 364.368 225.178 365.054 225.982V220.75H366.771V235H365.193L365.11 233.924C364.423 234.765 363.468 235.186 362.243 235.186C361.08 235.186 360.131 234.709 359.395 233.757C358.665 232.804 358.3 231.561 358.3 230.027V229.897ZM360.017 230.092C360.017 231.23 360.252 232.121 360.722 232.764C361.192 233.407 361.841 233.729 362.67 233.729C363.758 233.729 364.553 233.24 365.054 232.263V227.652C364.541 226.706 363.752 226.233 362.688 226.233C361.847 226.233 361.192 226.558 360.722 227.207C360.252 227.856 360.017 228.818 360.017 230.092ZM371.307 235H369.591V224.962H371.307V235ZM369.452 222.299C369.452 222.021 369.535 221.786 369.702 221.594C369.875 221.403 370.129 221.307 370.463 221.307C370.797 221.307 371.05 221.403 371.224 221.594C371.397 221.786 371.483 222.021 371.483 222.299C371.483 222.578 371.397 222.81 371.224 222.995C371.05 223.181 370.797 223.273 370.463 223.273C370.129 223.273 369.875 223.181 369.702 222.995C369.535 222.81 369.452 222.578 369.452 222.299ZM374.638 235V226.289H373.051V224.962H374.638V224.108C374.638 222.989 374.956 222.117 375.593 221.492C376.236 220.868 377.143 220.555 378.312 220.555C379.004 220.555 379.879 220.744 380.937 221.121L380.649 222.568C379.876 222.259 379.14 222.104 378.441 222.104C377.705 222.104 377.174 222.271 376.846 222.605C376.524 222.933 376.363 223.428 376.363 224.09V224.962H378.414V226.289H376.363V235H374.638ZM381.791 235H380.065V224.962H381.791V235ZM388.749 235.186C387.388 235.186 386.281 234.74 385.427 233.85C384.574 232.953 384.147 231.756 384.147 230.259V229.944C384.147 228.948 384.336 228.061 384.713 227.281C385.096 226.496 385.628 225.883 386.309 225.444C386.995 224.999 387.737 224.776 388.535 224.776C389.84 224.776 390.854 225.206 391.578 226.066C392.302 226.926 392.664 228.156 392.664 229.758V230.473H385.863C385.888 231.462 386.176 232.263 386.726 232.875C387.283 233.482 387.988 233.785 388.841 233.785C389.447 233.785 389.961 233.661 390.381 233.414C390.802 233.166 391.17 232.838 391.485 232.43L392.534 233.247C391.693 234.539 390.431 235.186 388.749 235.186ZM388.535 226.187C387.842 226.187 387.261 226.44 386.791 226.947C386.321 227.448 386.03 228.153 385.919 229.062H390.947V228.933C390.898 228.061 390.663 227.386 390.242 226.91C389.822 226.428 389.253 226.187 388.535 226.187ZM394.241 229.897C394.241 228.357 394.606 227.12 395.335 226.187C396.065 225.246 397.021 224.776 398.202 224.776C399.377 224.776 400.308 225.178 400.995 225.982V220.75H402.711V235H401.134L401.05 233.924C400.364 234.765 399.408 235.186 398.184 235.186C397.021 235.186 396.071 234.709 395.335 233.757C394.606 232.804 394.241 231.561 394.241 230.027V229.897ZM395.957 230.092C395.957 231.23 396.192 232.121 396.662 232.764C397.132 233.407 397.782 233.729 398.61 233.729C399.699 233.729 400.494 233.24 400.995 232.263V227.652C400.481 226.706 399.693 226.233 398.629 226.233C397.788 226.233 397.132 226.558 396.662 227.207C396.192 227.856 395.957 228.818 395.957 230.092ZM410.94 235V226.289H409.354V224.962H410.94V223.932C410.94 222.856 411.228 222.024 411.803 221.437C412.378 220.849 413.191 220.555 414.243 220.555C414.639 220.555 415.031 220.608 415.421 220.713L415.328 222.104C415.037 222.049 414.728 222.021 414.4 222.021C413.844 222.021 413.414 222.185 413.111 222.513C412.808 222.834 412.656 223.298 412.656 223.904V224.962H414.799V226.289H412.656V235H410.94ZM416.247 229.888C416.247 228.905 416.438 228.02 416.822 227.235C417.211 226.449 417.75 225.843 418.436 225.417C419.129 224.99 419.917 224.776 420.802 224.776C422.169 224.776 423.273 225.25 424.114 226.196C424.961 227.142 425.385 228.401 425.385 229.972V230.092C425.385 231.069 425.196 231.948 424.819 232.727C424.448 233.5 423.913 234.103 423.214 234.536C422.521 234.969 421.723 235.186 420.82 235.186C419.46 235.186 418.356 234.712 417.508 233.766C416.667 232.82 416.247 231.567 416.247 230.009V229.888ZM417.972 230.092C417.972 231.206 418.229 232.099 418.742 232.773C419.262 233.448 419.954 233.785 420.82 233.785C421.692 233.785 422.385 233.444 422.898 232.764C423.412 232.078 423.668 231.119 423.668 229.888C423.668 228.787 423.406 227.897 422.88 227.216C422.36 226.53 421.668 226.187 420.802 226.187C419.954 226.187 419.271 226.524 418.751 227.198C418.232 227.872 417.972 228.837 417.972 230.092ZM432.389 226.502C432.129 226.459 431.848 226.437 431.545 226.437C430.419 226.437 429.655 226.916 429.253 227.875V235H427.537V224.962H429.207L429.235 226.122C429.798 225.225 430.596 224.776 431.628 224.776C431.962 224.776 432.216 224.82 432.389 224.906V226.502ZM435.59 224.962L435.636 226.075C436.372 225.209 437.365 224.776 438.614 224.776C440.018 224.776 440.974 225.314 441.481 226.391C441.815 225.908 442.248 225.519 442.78 225.222C443.318 224.925 443.952 224.776 444.682 224.776C446.883 224.776 448.003 225.942 448.04 228.274V235H446.324V228.376C446.324 227.659 446.16 227.124 445.832 226.771C445.504 226.412 444.954 226.233 444.181 226.233C443.544 226.233 443.015 226.425 442.594 226.808C442.174 227.185 441.929 227.696 441.861 228.339V235H440.136V228.422C440.136 226.963 439.421 226.233 437.993 226.233C436.867 226.233 436.097 226.712 435.683 227.671V235H433.966V224.962H435.59Z" fill="black"/>
<path id="5. setState" d="M478.13 90.5654L482.443 85.3468L488.197 89.1922L487.316 90.5112L482.773 87.4751L480.387 90.3106C481.154 90.3543 481.887 90.6099 482.586 91.0772C483.609 91.7611 484.195 92.6434 484.343 93.7243C484.494 94.8 484.185 95.9138 483.416 97.0657C482.642 98.2227 481.719 98.9259 480.645 99.1751C479.579 99.4227 478.486 99.1719 477.365 98.4228C476.372 97.7595 475.746 96.9432 475.487 95.9737C475.227 95.0042 475.378 94.0043 475.94 92.974L477.29 93.8761C476.948 94.5773 476.852 95.2162 477.002 95.7927C477.156 96.3641 477.536 96.8525 478.143 97.258C478.807 97.7013 479.477 97.8221 480.155 97.6205C480.838 97.4222 481.446 96.9246 481.978 96.1275C482.48 95.3767 482.676 94.6376 482.567 93.9102C482.467 93.181 482.077 92.5896 481.399 92.136C480.776 91.7202 480.197 91.53 479.66 91.5655L479.076 91.6214L478.13 90.5654ZM483.259 101.056C483.424 100.81 483.634 100.652 483.888 100.584C484.147 100.519 484.423 100.584 484.716 100.78C485.009 100.976 485.175 101.206 485.214 101.47C485.259 101.738 485.198 101.995 485.034 102.242C484.875 102.478 484.666 102.625 484.405 102.681C484.15 102.741 483.875 102.673 483.582 102.477C483.289 102.281 483.121 102.054 483.078 101.795C483.041 101.539 483.101 101.293 483.259 101.056ZM497.151 108.22C497.409 107.834 497.462 107.438 497.31 107.031C497.166 106.623 496.783 106.099 496.161 105.46C495.544 104.825 495.095 104.257 494.812 103.755C494.535 103.258 494.393 102.791 494.387 102.355C494.385 101.923 494.522 101.501 494.797 101.09C495.254 100.406 495.929 100.02 496.821 99.9314C497.718 99.8466 498.617 100.105 499.516 100.706C500.463 101.339 501.066 102.095 501.325 102.975C501.59 103.859 501.469 104.681 500.96 105.442L499.525 104.484C499.786 104.093 499.844 103.644 499.699 103.138C499.559 102.635 499.237 102.215 498.733 101.879C498.214 101.532 497.732 101.373 497.287 101.404C496.843 101.434 496.499 101.632 496.255 101.997C496.025 102.341 495.987 102.692 496.143 103.049C496.299 103.406 496.678 103.901 497.281 104.535C497.89 105.172 498.341 105.749 498.636 106.266C498.93 106.782 499.078 107.268 499.079 107.723C499.089 108.175 498.944 108.626 498.645 109.073C498.147 109.819 497.448 110.218 496.55 110.272C495.654 110.321 494.731 110.028 493.779 109.392C493.111 108.945 492.598 108.432 492.242 107.851C491.886 107.271 491.702 106.672 491.691 106.055C491.688 105.436 491.852 104.879 492.182 104.385L493.609 105.339C493.315 105.834 493.251 106.342 493.417 106.862C493.591 107.38 493.971 107.835 494.558 108.227C495.098 108.588 495.602 108.769 496.07 108.769C496.547 108.768 496.907 108.585 497.151 108.22ZM502.318 115.098C501.187 114.342 500.514 113.357 500.299 112.142C500.088 110.922 500.398 109.69 501.229 108.445L501.405 108.183C501.958 107.355 502.608 106.722 503.355 106.284C504.11 105.844 504.892 105.63 505.702 105.643C506.52 105.654 507.261 105.881 507.924 106.325C509.009 107.05 509.614 107.971 509.738 109.088C509.862 110.205 509.479 111.429 508.589 112.761L508.192 113.355L502.538 109.576C502.009 110.413 501.803 111.239 501.92 112.054C502.046 112.867 502.464 113.511 503.174 113.985C503.678 114.322 504.173 114.504 504.66 114.532C505.147 114.56 505.636 114.492 506.125 114.328L506.543 115.589C505.125 116.196 503.717 116.033 502.318 115.098ZM507.141 107.497C506.565 107.112 505.941 107 505.268 107.161C504.599 107.316 503.965 107.741 503.368 108.435L507.548 111.229L507.621 111.121C508.064 110.368 508.243 109.677 508.158 109.047C508.076 108.413 507.737 107.896 507.141 107.497ZM516.199 109.154L514.848 111.175L516.406 112.216L515.669 113.319L514.111 112.278L510.652 117.454C510.429 117.788 510.33 118.086 510.355 118.349C510.384 118.606 510.566 118.847 510.9 119.07C511.065 119.18 511.312 119.3 511.641 119.431L510.868 120.588C510.424 120.44 510.024 120.247 509.669 120.01C509.032 119.584 508.68 119.07 508.613 118.468C508.547 117.866 508.751 117.21 509.225 116.5L512.684 111.324L511.165 110.309L511.902 109.206L513.421 110.221L514.772 108.2L516.199 109.154ZM519.381 119.035C518.355 117.822 517.728 116.756 517.501 115.838C517.283 114.918 517.434 114.067 517.957 113.286C518.548 112.401 519.388 111.906 520.477 111.801C521.575 111.694 522.69 112.019 523.821 112.775C524.593 113.29 525.18 113.898 525.582 114.599C525.989 115.302 526.182 116.026 526.161 116.771C526.145 117.519 525.929 118.204 525.513 118.826L524.024 117.831C524.478 117.152 524.618 116.476 524.443 115.802C524.272 115.122 523.794 114.519 523.007 113.994C522.277 113.506 521.598 113.286 520.97 113.335C520.35 113.383 519.85 113.692 519.469 114.263C519.163 114.72 519.096 115.237 519.269 115.814C519.45 116.389 519.918 117.118 520.674 118.003C521.435 118.89 521.971 119.669 522.282 120.338C522.602 121.006 522.747 121.635 522.717 122.225C522.693 122.818 522.49 123.4 522.108 123.971C521.5 124.881 520.657 125.374 519.58 125.45C518.506 125.521 517.375 125.16 516.187 124.366C515.416 123.851 514.794 123.223 514.321 122.483C513.852 121.738 513.607 120.986 513.585 120.228C513.569 119.473 513.779 118.769 514.215 118.116L515.704 119.111C515.25 119.79 515.141 120.494 515.375 121.223C515.618 121.951 516.158 122.595 516.996 123.155C517.778 123.677 518.484 123.918 519.113 123.878C519.743 123.837 520.242 123.542 520.609 122.992C520.977 122.441 521.068 121.888 520.881 121.332C520.698 120.771 520.198 120.006 519.381 119.035ZM530.747 118.876L529.396 120.897L530.954 121.938L530.217 123.041L528.659 122L525.2 127.175C524.977 127.51 524.878 127.808 524.903 128.07C524.932 128.328 525.114 128.568 525.448 128.792C525.613 128.901 525.859 129.022 526.189 129.153L525.415 130.31C524.971 130.162 524.572 129.969 524.217 129.732C523.579 129.306 523.227 128.792 523.161 128.189C523.095 127.587 523.299 126.931 523.773 126.222L527.232 121.046L525.712 120.031L526.449 118.927L527.969 119.943L529.319 117.922L530.747 118.876ZM532.203 134.846C532.231 134.626 532.36 134.288 532.59 133.832C531.467 134.078 530.444 133.893 529.524 133.278C528.701 132.728 528.18 132.045 527.959 131.228C527.747 130.41 527.88 129.643 528.358 128.929C528.939 128.059 529.718 127.606 530.696 127.567C531.682 127.527 532.774 127.908 533.973 128.708L535.361 129.636L535.799 128.98C536.133 128.482 536.248 127.986 536.146 127.494C536.047 126.996 535.707 126.553 535.126 126.165C534.616 125.825 534.104 125.668 533.587 125.695C533.071 125.722 532.691 125.918 532.447 126.283L531.012 125.324C531.291 124.907 531.705 124.604 532.256 124.414C532.815 124.223 533.423 124.182 534.078 124.293C534.738 124.407 535.372 124.667 535.978 125.072C536.94 125.715 537.532 126.46 537.754 127.308C537.98 128.15 537.821 129 537.278 129.857L534.711 133.698C534.199 134.464 533.889 135.139 533.782 135.722L533.7 135.846L532.203 134.846ZM530.562 132.176C531.009 132.475 531.511 132.642 532.067 132.679C532.623 132.716 533.114 132.609 533.541 132.359L534.686 130.647L533.567 129.899C531.819 128.731 530.603 128.658 529.919 129.682C529.62 130.129 529.535 130.578 529.665 131.03C529.795 131.481 530.094 131.863 530.562 132.176ZM544.507 128.071L543.157 130.092L544.715 131.134L543.978 132.237L542.42 131.195L538.961 136.371C538.738 136.705 538.639 137.004 538.664 137.266C538.693 137.524 538.875 137.764 539.209 137.987C539.373 138.097 539.62 138.218 539.95 138.348L539.176 139.505C538.732 139.357 538.333 139.165 537.978 138.928C537.34 138.502 536.988 137.988 536.922 137.385C536.856 136.783 537.06 136.127 537.534 135.418L540.993 130.242L539.473 129.226L540.21 128.123L541.73 129.139L543.08 127.118L544.507 128.071ZM544.172 143.067C543.041 142.311 542.368 141.326 542.153 140.111C541.941 138.891 542.252 137.659 543.083 136.414L543.258 136.152C543.812 135.324 544.462 134.691 545.208 134.253C545.964 133.813 546.746 133.599 547.556 133.612C548.374 133.623 549.115 133.85 549.778 134.294C550.863 135.019 551.468 135.94 551.592 137.057C551.716 138.174 551.333 139.398 550.443 140.73L550.046 141.324L544.392 137.545C543.862 138.382 543.656 139.208 543.774 140.023C543.9 140.836 544.318 141.479 545.027 141.954C545.531 142.29 546.027 142.473 546.514 142.501C547.001 142.529 547.489 142.461 547.978 142.297L548.396 143.558C546.979 144.165 545.571 144.002 544.172 143.067ZM548.995 135.466C548.419 135.081 547.794 134.969 547.122 135.13C546.453 135.285 545.819 135.71 545.221 136.404L549.402 139.198L549.474 139.09C549.918 138.337 550.097 137.646 550.012 137.016C549.93 136.382 549.591 135.865 548.995 135.466Z" fill="black"/>
</svg>
