<svg width="1155" height="465" viewBox="0 0 1155 465" fill="none" xmlns="http://www.w3.org/2000/svg">
<rect width="1155" height="465" fill="white"/>
<rect id="Rectangle 1" y="14" width="415" height="451" fill="white"/>
<rect id="Rectangle 2" x="42" y="31" width="337" height="417" fill="#E2F2E1"/>
<path id="FORM" d="M75.0176 55.0347H69.3491V61H67.5679V47.4922H75.936V48.958H69.3491V53.5781H75.0176V55.0347ZM88.4604 54.6821C88.4604 56.0057 88.2378 57.1623 87.7925 58.1519C87.3472 59.1353 86.7163 59.8867 85.8999 60.4062C85.0835 60.9258 84.131 61.1855 83.0425 61.1855C81.9787 61.1855 81.0355 60.9258 80.2129 60.4062C79.3903 59.8805 78.7502 59.1353 78.2925 58.1704C77.841 57.1994 77.609 56.0768 77.5967 54.8027V53.8286C77.5967 52.5298 77.8224 51.3825 78.2739 50.3867C78.7254 49.391 79.3625 48.6302 80.1851 48.1045C81.0138 47.5726 81.9601 47.3066 83.0239 47.3066C84.1063 47.3066 85.0588 47.5695 85.8813 48.0952C86.7101 48.6147 87.3472 49.3724 87.7925 50.3682C88.2378 51.3577 88.4604 52.5112 88.4604 53.8286V54.6821ZM86.6885 53.8101C86.6885 52.2082 86.3669 50.9805 85.7236 50.127C85.0804 49.2673 84.1805 48.8374 83.0239 48.8374C81.8983 48.8374 81.0107 49.2673 80.3613 50.127C79.7181 50.9805 79.3872 52.168 79.3687 53.6895V54.6821C79.3687 56.2345 79.6934 57.4561 80.3428 58.3467C80.9984 59.2311 81.8983 59.6733 83.0425 59.6733C84.1929 59.6733 85.0835 59.2559 85.7144 58.4209C86.3452 57.5798 86.6699 56.3768 86.6885 54.812V53.8101ZM96.0864 55.5356H92.9136V61H91.123V47.4922H95.5947C97.1162 47.4922 98.2852 47.8385 99.1016 48.5312C99.9242 49.224 100.335 50.2321 100.335 51.5557C100.335 52.3968 100.107 53.1297 99.6489 53.7544C99.1974 54.3791 98.5666 54.846 97.7563 55.1553L100.929 60.8887V61H99.0181L96.0864 55.5356ZM92.9136 54.0791H95.6504C96.5348 54.0791 97.2368 53.8503 97.7563 53.3926C98.2821 52.9349 98.5449 52.3226 98.5449 51.5557C98.5449 50.7207 98.2944 50.0806 97.7935 49.6353C97.2987 49.1899 96.5812 48.9642 95.6411 48.958H92.9136V54.0791ZM105.141 47.4922L109.557 58.5137L113.973 47.4922H116.283V61H114.502V55.7397L114.669 50.062L110.234 61H108.871L104.445 50.0898L104.622 55.7397V61H102.84V47.4922H105.141Z" fill="black"/>
<rect id="Rectangle 3" x="67" y="66" width="288" height="121" fill="#F5D7D7"/>
<path id="SECTION A" d="M97.5479 92.979C96.0202 92.5399 94.9069 92.0018 94.208 91.3647C93.5153 90.7215 93.1689 89.9299 93.1689 88.9897C93.1689 87.9259 93.5926 87.0477 94.4399 86.355C95.2935 85.6561 96.4006 85.3066 97.7612 85.3066C98.689 85.3066 99.5146 85.486 100.238 85.8447C100.968 86.2035 101.531 86.6982 101.927 87.3291C102.329 87.96 102.53 88.6496 102.53 89.3979H100.739C100.739 88.5815 100.479 87.9414 99.96 87.4775C99.4404 87.0075 98.7075 86.7725 97.7612 86.7725C96.883 86.7725 96.1965 86.9673 95.7017 87.3569C95.2131 87.7404 94.9688 88.2754 94.9688 88.9619C94.9688 89.5124 95.2007 89.9793 95.6646 90.3628C96.1346 90.7401 96.9294 91.0864 98.0488 91.4019C99.1745 91.7173 100.053 92.0667 100.684 92.4502C101.321 92.8275 101.791 93.2697 102.094 93.7769C102.403 94.284 102.558 94.8809 102.558 95.5674C102.558 96.6621 102.131 97.5404 101.277 98.2021C100.424 98.8577 99.2827 99.1855 97.854 99.1855C96.9263 99.1855 96.0604 99.0093 95.2563 98.6567C94.4523 98.298 93.8307 97.8094 93.3916 97.1909C92.9587 96.5724 92.7422 95.8704 92.7422 95.085H94.5327C94.5327 95.9014 94.8327 96.5477 95.4326 97.0239C96.0387 97.494 96.8459 97.729 97.854 97.729C98.7941 97.729 99.5146 97.5373 100.016 97.1538C100.517 96.7703 100.767 96.2477 100.767 95.5859C100.767 94.9242 100.535 94.4139 100.071 94.0552C99.6074 93.6903 98.7663 93.3315 97.5479 92.979ZM112.484 92.7563H106.63V97.5435H113.431V99H104.849V85.4922H113.338V86.958H106.63V91.2998H112.484V92.7563ZM125.584 94.7139C125.417 96.1426 124.888 97.2466 123.998 98.0259C123.113 98.799 121.935 99.1855 120.463 99.1855C118.867 99.1855 117.587 98.6134 116.622 97.4692C115.663 96.325 115.184 94.7943 115.184 92.877V91.5781C115.184 90.3226 115.407 89.2186 115.852 88.2661C116.304 87.3136 116.941 86.5838 117.763 86.0767C118.586 85.5633 119.538 85.3066 120.621 85.3066C122.056 85.3066 123.206 85.7087 124.072 86.5127C124.938 87.3105 125.442 88.4176 125.584 89.834H123.793C123.639 88.7578 123.302 87.9785 122.782 87.4961C122.269 87.0137 121.548 86.7725 120.621 86.7725C119.483 86.7725 118.589 87.193 117.939 88.0342C117.296 88.8753 116.975 90.0721 116.975 91.6245V92.9326C116.975 94.3984 117.281 95.5643 117.893 96.4302C118.505 97.2961 119.362 97.729 120.463 97.729C121.452 97.729 122.21 97.5063 122.736 97.061C123.268 96.6095 123.62 95.8271 123.793 94.7139H125.584ZM137.079 86.958H132.737V99H130.965V86.958H126.632V85.4922H137.079V86.958ZM140.994 99H139.212V85.4922H140.994V99ZM154.65 92.6821C154.65 94.0057 154.427 95.1623 153.982 96.1519C153.537 97.1353 152.906 97.8867 152.089 98.4062C151.273 98.9258 150.32 99.1855 149.232 99.1855C148.168 99.1855 147.225 98.9258 146.402 98.4062C145.58 97.8805 144.94 97.1353 144.482 96.1704C144.03 95.1994 143.799 94.0768 143.786 92.8027V91.8286C143.786 90.5298 144.012 89.3825 144.463 88.3867C144.915 87.391 145.552 86.6302 146.375 86.1045C147.203 85.5726 148.15 85.3066 149.213 85.3066C150.296 85.3066 151.248 85.5695 152.071 86.0952C152.9 86.6147 153.537 87.3724 153.982 88.3682C154.427 89.3577 154.65 90.5112 154.65 91.8286V92.6821ZM152.878 91.8101C152.878 90.2082 152.556 88.9805 151.913 88.127C151.27 87.2673 150.37 86.8374 149.213 86.8374C148.088 86.8374 147.2 87.2673 146.551 88.127C145.908 88.9805 145.577 90.168 145.558 91.6895V92.6821C145.558 94.2345 145.883 95.4561 146.532 96.3467C147.188 97.2311 148.088 97.6733 149.232 97.6733C150.382 97.6733 151.273 97.2559 151.904 96.4209C152.535 95.5798 152.859 94.3768 152.878 92.812V91.8101ZM167.703 99H165.913L159.112 88.5908V99H157.322V85.4922H159.112L165.931 95.9478V85.4922H167.703V99ZM183.039 95.4746H177.379L176.108 99H174.271L179.43 85.4922H180.988L186.156 99H184.328L183.039 95.4746ZM177.917 94.0088H182.51L180.209 87.6909L177.917 94.0088Z" fill="black"/>
<line id="Line 1" x1="92" y1="175.5" x2="334" y2="175.5" stroke="black"/>
<line id="Line 2" x1="93" y1="141.5" x2="335" y2="141.5" stroke="black"/>
<path id="Input 1" d="M123.479 137H121.698V123.492H123.479V137ZM128.099 126.962L128.155 128.224C128.922 127.259 129.924 126.776 131.161 126.776C133.282 126.776 134.352 127.973 134.371 130.367V137H132.654V130.357C132.648 129.634 132.481 129.099 132.153 128.752C131.832 128.406 131.328 128.233 130.641 128.233C130.084 128.233 129.596 128.381 129.175 128.678C128.755 128.975 128.427 129.365 128.192 129.847V137H126.476V126.962H128.099ZM145.438 132.092C145.438 133.62 145.089 134.851 144.39 135.785C143.691 136.719 142.745 137.186 141.551 137.186C140.333 137.186 139.374 136.799 138.675 136.026V140.859H136.959V126.962H138.527L138.61 128.075C139.309 127.209 140.28 126.776 141.523 126.776C142.729 126.776 143.682 127.231 144.381 128.14C145.086 129.049 145.438 130.314 145.438 131.935V132.092ZM143.722 131.897C143.722 130.766 143.481 129.872 142.999 129.216C142.516 128.561 141.854 128.233 141.013 128.233C139.974 128.233 139.195 128.694 138.675 129.615V134.412C139.189 135.327 139.974 135.785 141.032 135.785C141.854 135.785 142.507 135.46 142.989 134.811C143.478 134.155 143.722 133.184 143.722 131.897ZM153.825 136.007C153.157 136.793 152.177 137.186 150.884 137.186C149.814 137.186 148.998 136.876 148.435 136.258C147.878 135.633 147.597 134.712 147.591 133.493V126.962H149.307V133.447C149.307 134.968 149.926 135.729 151.163 135.729C152.474 135.729 153.346 135.24 153.779 134.263V126.962H155.495V137H153.862L153.825 136.007ZM160.44 124.531V126.962H162.314V128.289H160.44V134.514C160.44 134.916 160.523 135.219 160.69 135.423C160.857 135.621 161.142 135.72 161.544 135.72C161.742 135.72 162.014 135.683 162.36 135.608V137C161.909 137.124 161.47 137.186 161.043 137.186C160.276 137.186 159.698 136.954 159.308 136.49C158.918 136.026 158.724 135.367 158.724 134.514V128.289H156.896V126.962H158.724V124.531H160.44ZM174.504 137H172.779V125.561L169.318 126.832V125.273L174.235 123.427H174.504V137Z" fill="black"/>
<path id="Input 2" d="M122.479 169H120.698V155.492H122.479V169ZM127.099 158.962L127.155 160.224C127.922 159.259 128.924 158.776 130.161 158.776C132.282 158.776 133.352 159.973 133.371 162.367V169H131.654V162.357C131.648 161.634 131.481 161.099 131.153 160.752C130.832 160.406 130.328 160.233 129.641 160.233C129.084 160.233 128.596 160.381 128.175 160.678C127.755 160.975 127.427 161.365 127.192 161.847V169H125.476V158.962H127.099ZM144.438 164.092C144.438 165.62 144.089 166.851 143.39 167.785C142.691 168.719 141.745 169.186 140.551 169.186C139.333 169.186 138.374 168.799 137.675 168.026V172.859H135.959V158.962H137.527L137.61 160.075C138.309 159.209 139.28 158.776 140.523 158.776C141.729 158.776 142.682 159.231 143.381 160.14C144.086 161.049 144.438 162.314 144.438 163.935V164.092ZM142.722 163.897C142.722 162.766 142.481 161.872 141.999 161.216C141.516 160.561 140.854 160.233 140.013 160.233C138.974 160.233 138.195 160.694 137.675 161.615V166.412C138.189 167.327 138.974 167.785 140.032 167.785C140.854 167.785 141.507 167.46 141.989 166.811C142.478 166.155 142.722 165.184 142.722 163.897ZM152.825 168.007C152.157 168.793 151.177 169.186 149.884 169.186C148.814 169.186 147.998 168.876 147.435 168.258C146.878 167.633 146.597 166.712 146.591 165.493V158.962H148.307V165.447C148.307 166.968 148.926 167.729 150.163 167.729C151.474 167.729 152.346 167.24 152.779 166.263V158.962H154.495V169H152.862L152.825 168.007ZM159.44 156.531V158.962H161.314V160.289H159.44V166.514C159.44 166.916 159.523 167.219 159.69 167.423C159.857 167.621 160.142 167.72 160.544 167.72C160.742 167.72 161.014 167.683 161.36 167.608V169C160.909 169.124 160.47 169.186 160.043 169.186C159.276 169.186 158.698 168.954 158.308 168.49C157.918 168.026 157.724 167.367 157.724 166.514V160.289H155.896V158.962H157.724V156.531H159.44ZM176.714 169H167.864V167.766L172.54 162.571C173.232 161.785 173.708 161.148 173.968 160.66C174.234 160.165 174.367 159.655 174.367 159.129C174.367 158.424 174.154 157.846 173.727 157.394C173.3 156.943 172.731 156.717 172.02 156.717C171.167 156.717 170.502 156.961 170.025 157.45C169.555 157.932 169.32 158.606 169.32 159.472H167.604C167.604 158.229 168.003 157.224 168.801 156.457C169.605 155.69 170.678 155.307 172.02 155.307C173.276 155.307 174.268 155.638 174.998 156.299C175.728 156.955 176.093 157.83 176.093 158.925C176.093 160.255 175.245 161.838 173.551 163.675L169.933 167.599H176.714V169Z" fill="black"/>
<line id="Line 3" x1="66" y1="218.5" x2="354" y2="218.5" stroke="black"/>
<path id="Input 3" d="M124.479 214H122.698V200.492H124.479V214ZM129.099 203.962L129.155 205.224C129.922 204.259 130.924 203.776 132.161 203.776C134.282 203.776 135.352 204.973 135.371 207.367V214H133.654V207.357C133.648 206.634 133.481 206.099 133.153 205.752C132.832 205.406 132.328 205.233 131.641 205.233C131.084 205.233 130.596 205.381 130.175 205.678C129.755 205.975 129.427 206.365 129.192 206.847V214H127.476V203.962H129.099ZM146.438 209.092C146.438 210.62 146.089 211.851 145.39 212.785C144.691 213.719 143.745 214.186 142.551 214.186C141.333 214.186 140.374 213.799 139.675 213.026V217.859H137.959V203.962H139.527L139.61 205.075C140.309 204.209 141.28 203.776 142.523 203.776C143.729 203.776 144.682 204.231 145.381 205.14C146.086 206.049 146.438 207.314 146.438 208.935V209.092ZM144.722 208.897C144.722 207.766 144.481 206.872 143.999 206.216C143.516 205.561 142.854 205.233 142.013 205.233C140.974 205.233 140.195 205.694 139.675 206.615V211.412C140.189 212.327 140.974 212.785 142.032 212.785C142.854 212.785 143.507 212.46 143.989 211.811C144.478 211.155 144.722 210.184 144.722 208.897ZM154.825 213.007C154.157 213.793 153.177 214.186 151.884 214.186C150.814 214.186 149.998 213.876 149.435 213.258C148.878 212.633 148.597 211.712 148.591 210.493V203.962H150.307V210.447C150.307 211.968 150.926 212.729 152.163 212.729C153.474 212.729 154.346 212.24 154.779 211.263V203.962H156.495V214H154.862L154.825 213.007ZM161.44 201.531V203.962H163.314V205.289H161.44V211.514C161.44 211.916 161.523 212.219 161.69 212.423C161.857 212.621 162.142 212.72 162.544 212.72C162.742 212.72 163.014 212.683 163.36 212.608V214C162.909 214.124 162.47 214.186 162.043 214.186C161.276 214.186 160.698 213.954 160.308 213.49C159.918 213.026 159.724 212.367 159.724 211.514V205.289H157.896V203.962H159.724V201.531H161.44ZM172.359 206.411H173.649C174.459 206.399 175.096 206.185 175.56 205.771C176.024 205.357 176.256 204.797 176.256 204.092C176.256 202.508 175.467 201.717 173.89 201.717C173.148 201.717 172.554 201.93 172.109 202.357C171.67 202.778 171.45 203.337 171.45 204.036H169.734C169.734 202.966 170.124 202.079 170.903 201.374C171.688 200.662 172.684 200.307 173.89 200.307C175.164 200.307 176.163 200.644 176.887 201.318C177.61 201.992 177.972 202.929 177.972 204.129C177.972 204.716 177.78 205.285 177.397 205.836C177.02 206.386 176.503 206.798 175.848 207.07C176.59 207.305 177.162 207.694 177.564 208.239C177.972 208.783 178.176 209.448 178.176 210.233C178.176 211.446 177.78 212.407 176.989 213.119C176.197 213.83 175.167 214.186 173.899 214.186C172.632 214.186 171.599 213.842 170.801 213.156C170.009 212.469 169.613 211.563 169.613 210.438H171.339C171.339 211.149 171.571 211.718 172.035 212.145C172.499 212.571 173.12 212.785 173.899 212.785C174.728 212.785 175.362 212.568 175.801 212.135C176.24 211.702 176.46 211.081 176.46 210.271C176.46 209.485 176.219 208.882 175.736 208.461C175.254 208.041 174.558 207.824 173.649 207.812H172.359V206.411Z" fill="black"/>
<rect id="Rectangle 4" x="67" y="235" width="288" height="179" fill="#D4C5F3"/>
<path id="SECTION B" d="M98.5479 252.979C97.0202 252.54 95.9069 252.002 95.208 251.365C94.5153 250.722 94.1689 249.93 94.1689 248.99C94.1689 247.926 94.5926 247.048 95.4399 246.355C96.2935 245.656 97.4006 245.307 98.7612 245.307C99.689 245.307 100.515 245.486 101.238 245.845C101.968 246.203 102.531 246.698 102.927 247.329C103.329 247.96 103.53 248.65 103.53 249.398H101.739C101.739 248.582 101.479 247.941 100.96 247.478C100.44 247.007 99.7075 246.772 98.7612 246.772C97.883 246.772 97.1965 246.967 96.7017 247.357C96.2131 247.74 95.9688 248.275 95.9688 248.962C95.9688 249.512 96.2007 249.979 96.6646 250.363C97.1346 250.74 97.9294 251.086 99.0488 251.402C100.174 251.717 101.053 252.067 101.684 252.45C102.321 252.827 102.791 253.27 103.094 253.777C103.403 254.284 103.558 254.881 103.558 255.567C103.558 256.662 103.131 257.54 102.277 258.202C101.424 258.858 100.283 259.186 98.854 259.186C97.9263 259.186 97.0604 259.009 96.2563 258.657C95.4523 258.298 94.8307 257.809 94.3916 257.191C93.9587 256.572 93.7422 255.87 93.7422 255.085H95.5327C95.5327 255.901 95.8327 256.548 96.4326 257.024C97.0387 257.494 97.8459 257.729 98.854 257.729C99.7941 257.729 100.515 257.537 101.016 257.154C101.517 256.77 101.767 256.248 101.767 255.586C101.767 254.924 101.535 254.414 101.071 254.055C100.607 253.69 99.7663 253.332 98.5479 252.979ZM113.484 252.756H107.63V257.543H114.431V259H105.849V245.492H114.338V246.958H107.63V251.3H113.484V252.756ZM126.584 254.714C126.417 256.143 125.888 257.247 124.998 258.026C124.113 258.799 122.935 259.186 121.463 259.186C119.867 259.186 118.587 258.613 117.622 257.469C116.663 256.325 116.184 254.794 116.184 252.877V251.578C116.184 250.323 116.407 249.219 116.852 248.266C117.304 247.314 117.941 246.584 118.763 246.077C119.586 245.563 120.538 245.307 121.621 245.307C123.056 245.307 124.206 245.709 125.072 246.513C125.938 247.311 126.442 248.418 126.584 249.834H124.793C124.639 248.758 124.302 247.979 123.782 247.496C123.269 247.014 122.548 246.772 121.621 246.772C120.483 246.772 119.589 247.193 118.939 248.034C118.296 248.875 117.975 250.072 117.975 251.625V252.933C117.975 254.398 118.281 255.564 118.893 256.43C119.505 257.296 120.362 257.729 121.463 257.729C122.452 257.729 123.21 257.506 123.736 257.061C124.268 256.61 124.62 255.827 124.793 254.714H126.584ZM138.079 246.958H133.737V259H131.965V246.958H127.632V245.492H138.079V246.958ZM141.994 259H140.212V245.492H141.994V259ZM155.65 252.682C155.65 254.006 155.427 255.162 154.982 256.152C154.537 257.135 153.906 257.887 153.089 258.406C152.273 258.926 151.32 259.186 150.232 259.186C149.168 259.186 148.225 258.926 147.402 258.406C146.58 257.881 145.94 257.135 145.482 256.17C145.03 255.199 144.799 254.077 144.786 252.803V251.829C144.786 250.53 145.012 249.382 145.463 248.387C145.915 247.391 146.552 246.63 147.375 246.104C148.203 245.573 149.15 245.307 150.213 245.307C151.296 245.307 152.248 245.569 153.071 246.095C153.9 246.615 154.537 247.372 154.982 248.368C155.427 249.358 155.65 250.511 155.65 251.829V252.682ZM153.878 251.81C153.878 250.208 153.556 248.98 152.913 248.127C152.27 247.267 151.37 246.837 150.213 246.837C149.088 246.837 148.2 247.267 147.551 248.127C146.908 248.98 146.577 250.168 146.558 251.689V252.682C146.558 254.235 146.883 255.456 147.532 256.347C148.188 257.231 149.088 257.673 150.232 257.673C151.382 257.673 152.273 257.256 152.904 256.421C153.535 255.58 153.859 254.377 153.878 252.812V251.81ZM168.703 259H166.913L160.112 248.591V259H158.322V245.492H160.112L166.931 255.948V245.492H168.703V259ZM176.58 259V245.492H180.996C182.461 245.492 183.562 245.795 184.298 246.401C185.041 247.007 185.412 247.904 185.412 249.092C185.412 249.723 185.232 250.282 184.874 250.771C184.515 251.253 184.026 251.628 183.408 251.894C184.138 252.098 184.713 252.487 185.133 253.062C185.56 253.632 185.773 254.312 185.773 255.104C185.773 256.316 185.381 257.268 184.595 257.961C183.81 258.654 182.7 259 181.265 259H176.58ZM178.361 252.682V257.543H181.302C182.131 257.543 182.783 257.33 183.259 256.903C183.742 256.47 183.983 255.877 183.983 255.122C183.983 253.495 183.098 252.682 181.33 252.682H178.361ZM178.361 251.253H181.051C181.831 251.253 182.452 251.059 182.916 250.669C183.386 250.279 183.621 249.75 183.621 249.083C183.621 248.34 183.405 247.802 182.972 247.468C182.539 247.128 181.88 246.958 180.996 246.958H178.361V251.253Z" fill="black"/>
<rect id="Rectangle 5" x="93" y="301" width="242" height="99" fill="#E0D4FB"/>
<line id="Line 4" x1="96" y1="365.5" x2="319" y2="365.5" stroke="black"/>
<path id="Input 5" d="M134.479 361H132.698V347.492H134.479V361ZM139.099 350.962L139.155 352.224C139.922 351.259 140.924 350.776 142.161 350.776C144.282 350.776 145.352 351.973 145.371 354.367V361H143.654V354.357C143.648 353.634 143.481 353.099 143.153 352.752C142.832 352.406 142.328 352.233 141.641 352.233C141.084 352.233 140.596 352.381 140.175 352.678C139.755 352.975 139.427 353.365 139.192 353.847V361H137.476V350.962H139.099ZM156.438 356.092C156.438 357.62 156.089 358.851 155.39 359.785C154.691 360.719 153.745 361.186 152.551 361.186C151.333 361.186 150.374 360.799 149.675 360.026V364.859H147.959V350.962H149.527L149.61 352.075C150.309 351.209 151.28 350.776 152.523 350.776C153.729 350.776 154.682 351.231 155.381 352.14C156.086 353.049 156.438 354.314 156.438 355.935V356.092ZM154.722 355.897C154.722 354.766 154.481 353.872 153.999 353.216C153.516 352.561 152.854 352.233 152.013 352.233C150.974 352.233 150.195 352.694 149.675 353.615V358.412C150.189 359.327 150.974 359.785 152.032 359.785C152.854 359.785 153.507 359.46 153.989 358.811C154.478 358.155 154.722 357.184 154.722 355.897ZM164.825 360.007C164.157 360.793 163.177 361.186 161.884 361.186C160.814 361.186 159.998 360.876 159.435 360.258C158.878 359.633 158.597 358.712 158.591 357.493V350.962H160.307V357.447C160.307 358.968 160.926 359.729 162.163 359.729C163.474 359.729 164.346 359.24 164.779 358.263V350.962H166.495V361H164.862L164.825 360.007ZM171.44 348.531V350.962H173.314V352.289H171.44V358.514C171.44 358.916 171.523 359.219 171.69 359.423C171.857 359.621 172.142 359.72 172.544 359.72C172.742 359.72 173.014 359.683 173.36 359.608V361C172.909 361.124 172.47 361.186 172.043 361.186C171.276 361.186 170.698 360.954 170.308 360.49C169.918 360.026 169.724 359.367 169.724 358.514V352.289H167.896V350.962H169.724V348.531H171.44ZM180.652 354.228L181.339 347.492H188.26V349.079H182.795L182.387 352.762C183.049 352.372 183.8 352.177 184.642 352.177C185.872 352.177 186.85 352.585 187.573 353.402C188.297 354.212 188.659 355.31 188.659 356.695C188.659 358.087 188.281 359.185 187.527 359.989C186.778 360.787 185.73 361.186 184.382 361.186C183.188 361.186 182.214 360.855 181.459 360.193C180.705 359.531 180.275 358.616 180.17 357.447H181.793C181.899 358.22 182.174 358.804 182.619 359.2C183.064 359.59 183.652 359.785 184.382 359.785C185.18 359.785 185.804 359.513 186.256 358.968C186.714 358.424 186.942 357.673 186.942 356.714C186.942 355.811 186.695 355.087 186.2 354.543C185.712 353.993 185.059 353.717 184.243 353.717C183.494 353.717 182.907 353.881 182.48 354.209L182.025 354.58L180.652 354.228Z" fill="black"/>
<line id="Line 5" x1="92" y1="288.5" x2="315" y2="288.5" stroke="black"/>
<path id="Input 4" d="M130.479 284H128.698V270.492H130.479V284ZM135.099 273.962L135.155 275.224C135.922 274.259 136.924 273.776 138.161 273.776C140.282 273.776 141.352 274.973 141.371 277.367V284H139.654V277.357C139.648 276.634 139.481 276.099 139.153 275.752C138.832 275.406 138.328 275.233 137.641 275.233C137.084 275.233 136.596 275.381 136.175 275.678C135.755 275.975 135.427 276.365 135.192 276.847V284H133.476V273.962H135.099ZM152.438 279.092C152.438 280.62 152.089 281.851 151.39 282.785C150.691 283.719 149.745 284.186 148.551 284.186C147.333 284.186 146.374 283.799 145.675 283.026V287.859H143.959V273.962H145.527L145.61 275.075C146.309 274.209 147.28 273.776 148.523 273.776C149.729 273.776 150.682 274.231 151.381 275.14C152.086 276.049 152.438 277.314 152.438 278.935V279.092ZM150.722 278.897C150.722 277.766 150.481 276.872 149.999 276.216C149.516 275.561 148.854 275.233 148.013 275.233C146.974 275.233 146.195 275.694 145.675 276.615V281.412C146.189 282.327 146.974 282.785 148.032 282.785C148.854 282.785 149.507 282.46 149.989 281.811C150.478 281.155 150.722 280.184 150.722 278.897ZM160.825 283.007C160.157 283.793 159.177 284.186 157.884 284.186C156.814 284.186 155.998 283.876 155.435 283.258C154.878 282.633 154.597 281.712 154.591 280.493V273.962H156.307V280.447C156.307 281.968 156.926 282.729 158.163 282.729C159.474 282.729 160.346 282.24 160.779 281.263V273.962H162.495V284H160.862L160.825 283.007ZM167.44 271.531V273.962H169.314V275.289H167.44V281.514C167.44 281.916 167.523 282.219 167.69 282.423C167.857 282.621 168.142 282.72 168.544 282.72C168.742 282.72 169.014 282.683 169.36 282.608V284C168.909 284.124 168.47 284.186 168.043 284.186C167.276 284.186 166.698 283.954 166.308 283.49C165.918 283.026 165.724 282.367 165.724 281.514V275.289H163.896V273.962H165.724V271.531H167.44ZM183.109 279.463H184.983V280.864H183.109V284H181.384V280.864H175.233V279.853L181.282 270.492H183.109V279.463ZM177.181 279.463H181.384V272.839L181.18 273.21L177.181 279.463Z" fill="black"/>
<ellipse id="Ellipse 1" cx="809.5" cy="33" rx="34.5" ry="33" fill="#F3E07B"/>
<path id="FORM_2" d="M793.018 33.0347H787.349V39H785.568V25.4922H793.936V26.958H787.349V31.5781H793.018V33.0347ZM806.46 32.6821C806.46 34.0057 806.238 35.1623 805.792 36.1519C805.347 37.1353 804.716 37.8867 803.9 38.4062C803.083 38.9258 802.131 39.1855 801.042 39.1855C799.979 39.1855 799.035 38.9258 798.213 38.4062C797.39 37.8805 796.75 37.1353 796.292 36.1704C795.841 35.1994 795.609 34.0768 795.597 32.8027V31.8286C795.597 30.5298 795.822 29.3825 796.274 28.3867C796.725 27.391 797.362 26.6302 798.185 26.1045C799.014 25.5726 799.96 25.3066 801.024 25.3066C802.106 25.3066 803.059 25.5695 803.881 26.0952C804.71 26.6147 805.347 27.3724 805.792 28.3682C806.238 29.3577 806.46 30.5112 806.46 31.8286V32.6821ZM804.688 31.8101C804.688 30.2082 804.367 28.9805 803.724 28.127C803.08 27.2673 802.181 26.8374 801.024 26.8374C799.898 26.8374 799.011 27.2673 798.361 28.127C797.718 28.9805 797.387 30.168 797.369 31.6895V32.6821C797.369 34.2345 797.693 35.4561 798.343 36.3467C798.998 37.2311 799.898 37.6733 801.042 37.6733C802.193 37.6733 803.083 37.2559 803.714 36.4209C804.345 35.5798 804.67 34.3768 804.688 32.812V31.8101ZM814.086 33.5356H810.914V39H809.123V25.4922H813.595C815.116 25.4922 816.285 25.8385 817.102 26.5312C817.924 27.224 818.335 28.2321 818.335 29.5557C818.335 30.3968 818.107 31.1297 817.649 31.7544C817.197 32.3791 816.567 32.846 815.756 33.1553L818.929 38.8887V39H817.018L814.086 33.5356ZM810.914 32.0791H813.65C814.535 32.0791 815.237 31.8503 815.756 31.3926C816.282 30.9349 816.545 30.3226 816.545 29.5557C816.545 28.7207 816.294 28.0806 815.793 27.6353C815.299 27.1899 814.581 26.9642 813.641 26.958H810.914V32.0791ZM823.141 25.4922L827.557 36.5137L831.973 25.4922H834.283V39H832.502V33.7397L832.669 28.062L828.234 39H826.871L822.445 28.0898L822.622 33.7397V39H820.84V25.4922H823.141Z" fill="black"/>
<ellipse id="Ellipse 4" cx="1000.5" cy="120" rx="34.5" ry="33" fill="#F3E07B"/>
<path id="B" d="M998.419 131V117.492H1002.84C1004.3 117.492 1005.4 117.795 1006.14 118.401C1006.88 119.007 1007.25 119.904 1007.25 121.092C1007.25 121.723 1007.07 122.282 1006.71 122.771C1006.35 123.253 1005.87 123.628 1005.25 123.894C1005.98 124.098 1006.55 124.487 1006.97 125.062C1007.4 125.632 1007.61 126.312 1007.61 127.104C1007.61 128.316 1007.22 129.268 1006.44 129.961C1005.65 130.654 1004.54 131 1003.1 131H998.419ZM1000.2 124.682V129.543H1003.14C1003.97 129.543 1004.62 129.33 1005.1 128.903C1005.58 128.47 1005.82 127.877 1005.82 127.122C1005.82 125.495 1004.94 124.682 1003.17 124.682H1000.2ZM1000.2 123.253H1002.89C1003.67 123.253 1004.29 123.059 1004.76 122.669C1005.23 122.279 1005.46 121.75 1005.46 121.083C1005.46 120.34 1005.24 119.802 1004.81 119.468C1004.38 119.128 1003.72 118.958 1002.84 118.958H1000.2V123.253Z" fill="black"/>
<ellipse id="Ellipse 8" cx="1111.5" cy="234" rx="34.5" ry="33" fill="#F3E07B"/>
<path id="C" d="M1119.36 240.714C1119.19 242.143 1118.66 243.247 1117.77 244.026C1116.88 244.799 1115.71 245.186 1114.23 245.186C1112.64 245.186 1111.36 244.613 1110.39 243.469C1109.43 242.325 1108.96 240.794 1108.96 238.877V237.578C1108.96 236.323 1109.18 235.219 1109.62 234.266C1110.08 233.314 1110.71 232.584 1111.53 232.077C1112.36 231.563 1113.31 231.307 1114.39 231.307C1115.83 231.307 1116.98 231.709 1117.84 232.513C1118.71 233.311 1119.21 234.418 1119.36 235.834H1117.56C1117.41 234.758 1117.07 233.979 1116.55 233.496C1116.04 233.014 1115.32 232.772 1114.39 232.772C1113.25 232.772 1112.36 233.193 1111.71 234.034C1111.07 234.875 1110.75 236.072 1110.75 237.625V238.933C1110.75 240.398 1111.05 241.564 1111.66 242.43C1112.28 243.296 1113.13 243.729 1114.23 243.729C1115.22 243.729 1115.98 243.506 1116.51 243.061C1117.04 242.61 1117.39 241.827 1117.56 240.714H1119.36Z" fill="black"/>
<path id="SECTION C" d="M111.548 323.979C110.02 323.54 108.907 323.002 108.208 322.365C107.515 321.722 107.169 320.93 107.169 319.99C107.169 318.926 107.593 318.048 108.44 317.355C109.293 316.656 110.401 316.307 111.761 316.307C112.689 316.307 113.515 316.486 114.238 316.845C114.968 317.203 115.531 317.698 115.927 318.329C116.329 318.96 116.53 319.65 116.53 320.398H114.739C114.739 319.582 114.479 318.941 113.96 318.478C113.44 318.007 112.708 317.772 111.761 317.772C110.883 317.772 110.196 317.967 109.702 318.357C109.213 318.74 108.969 319.275 108.969 319.962C108.969 320.512 109.201 320.979 109.665 321.363C110.135 321.74 110.929 322.086 112.049 322.402C113.174 322.717 114.053 323.067 114.684 323.45C115.321 323.827 115.791 324.27 116.094 324.777C116.403 325.284 116.558 325.881 116.558 326.567C116.558 327.662 116.131 328.54 115.277 329.202C114.424 329.858 113.283 330.186 111.854 330.186C110.926 330.186 110.06 330.009 109.256 329.657C108.452 329.298 107.831 328.809 107.392 328.191C106.959 327.572 106.742 326.87 106.742 326.085H108.533C108.533 326.901 108.833 327.548 109.433 328.024C110.039 328.494 110.846 328.729 111.854 328.729C112.794 328.729 113.515 328.537 114.016 328.154C114.517 327.77 114.767 327.248 114.767 326.586C114.767 325.924 114.535 325.414 114.071 325.055C113.607 324.69 112.766 324.332 111.548 323.979ZM126.484 323.756H120.63V328.543H127.431V330H118.849V316.492H127.338V317.958H120.63V322.3H126.484V323.756ZM139.584 325.714C139.417 327.143 138.888 328.247 137.998 329.026C137.113 329.799 135.935 330.186 134.463 330.186C132.867 330.186 131.587 329.613 130.622 328.469C129.663 327.325 129.184 325.794 129.184 323.877V322.578C129.184 321.323 129.407 320.219 129.852 319.266C130.304 318.314 130.941 317.584 131.763 317.077C132.586 316.563 133.538 316.307 134.621 316.307C136.056 316.307 137.206 316.709 138.072 317.513C138.938 318.311 139.442 319.418 139.584 320.834H137.793C137.639 319.758 137.302 318.979 136.782 318.496C136.269 318.014 135.548 317.772 134.621 317.772C133.483 317.772 132.589 318.193 131.939 319.034C131.296 319.875 130.975 321.072 130.975 322.625V323.933C130.975 325.398 131.281 326.564 131.893 327.43C132.505 328.296 133.362 328.729 134.463 328.729C135.452 328.729 136.21 328.506 136.736 328.061C137.268 327.61 137.62 326.827 137.793 325.714H139.584ZM151.079 317.958H146.737V330H144.965V317.958H140.632V316.492H151.079V317.958ZM154.994 330H153.212V316.492H154.994V330ZM168.65 323.682C168.65 325.006 168.427 326.162 167.982 327.152C167.537 328.135 166.906 328.887 166.089 329.406C165.273 329.926 164.32 330.186 163.232 330.186C162.168 330.186 161.225 329.926 160.402 329.406C159.58 328.881 158.94 328.135 158.482 327.17C158.03 326.199 157.799 325.077 157.786 323.803V322.829C157.786 321.53 158.012 320.382 158.463 319.387C158.915 318.391 159.552 317.63 160.375 317.104C161.203 316.573 162.15 316.307 163.213 316.307C164.296 316.307 165.248 316.569 166.071 317.095C166.9 317.615 167.537 318.372 167.982 319.368C168.427 320.358 168.65 321.511 168.65 322.829V323.682ZM166.878 322.81C166.878 321.208 166.556 319.98 165.913 319.127C165.27 318.267 164.37 317.837 163.213 317.837C162.088 317.837 161.2 318.267 160.551 319.127C159.908 319.98 159.577 321.168 159.558 322.689V323.682C159.558 325.235 159.883 326.456 160.532 327.347C161.188 328.231 162.088 328.673 163.232 328.673C164.382 328.673 165.273 328.256 165.904 327.421C166.535 326.58 166.859 325.377 166.878 323.812V322.81ZM181.703 330H179.913L173.112 319.591V330H171.322V316.492H173.112L179.931 326.948V316.492H181.703V330ZM199.516 325.714C199.349 327.143 198.82 328.247 197.929 329.026C197.045 329.799 195.867 330.186 194.395 330.186C192.799 330.186 191.519 329.613 190.554 328.469C189.595 327.325 189.116 325.794 189.116 323.877V322.578C189.116 321.323 189.338 320.219 189.784 319.266C190.235 318.314 190.872 317.584 191.695 317.077C192.517 316.563 193.47 316.307 194.552 316.307C195.987 316.307 197.138 316.709 198.003 317.513C198.869 318.311 199.373 319.418 199.516 320.834H197.725C197.57 319.758 197.233 318.979 196.714 318.496C196.201 318.014 195.48 317.772 194.552 317.772C193.414 317.772 192.521 318.193 191.871 319.034C191.228 319.875 190.906 321.072 190.906 322.625V323.933C190.906 325.398 191.212 326.564 191.825 327.43C192.437 328.296 193.294 328.729 194.395 328.729C195.384 328.729 196.142 328.506 196.667 328.061C197.199 327.61 197.552 326.827 197.725 325.714H199.516Z" fill="black"/>
<ellipse id="Ellipse 3" cx="826.5" cy="154" rx="34.5" ry="33" fill="#7DF37B"/>
<path id="3" d="M824.618 155.411H825.908C826.718 155.399 827.355 155.185 827.819 154.771C828.283 154.357 828.515 153.797 828.515 153.092C828.515 151.508 827.726 150.717 826.149 150.717C825.407 150.717 824.813 150.93 824.368 151.357C823.929 151.778 823.709 152.337 823.709 153.036H821.993C821.993 151.966 822.382 151.079 823.162 150.374C823.947 149.662 824.943 149.307 826.149 149.307C827.423 149.307 828.422 149.644 829.146 150.318C829.869 150.992 830.231 151.929 830.231 153.129C830.231 153.716 830.039 154.285 829.656 154.836C829.278 155.386 828.762 155.798 828.106 156.07C828.849 156.305 829.421 156.694 829.823 157.239C830.231 157.783 830.435 158.448 830.435 159.233C830.435 160.446 830.039 161.407 829.248 162.119C828.456 162.83 827.426 163.186 826.158 163.186C824.89 163.186 823.857 162.842 823.06 162.156C822.268 161.469 821.872 160.563 821.872 159.438H823.598C823.598 160.149 823.83 160.718 824.293 161.145C824.757 161.571 825.379 161.785 826.158 161.785C826.987 161.785 827.621 161.568 828.06 161.135C828.499 160.702 828.719 160.081 828.719 159.271C828.719 158.485 828.478 157.882 827.995 157.461C827.513 157.041 826.817 156.824 825.908 156.812H824.618V155.411Z" fill="black"/>
<ellipse id="Ellipse 7" cx="939.5" cy="235" rx="34.5" ry="33" fill="#7DF37B"/>
<path id="4" d="M942.368 239.463H944.242V240.864H942.368V244H940.643V240.864H934.492V239.853L940.541 230.492H942.368V239.463ZM936.44 239.463H940.643V232.839L940.438 233.21L936.44 239.463Z" fill="black"/>
<ellipse id="Ellipse 9" cx="1120.5" cy="351" rx="34.5" ry="33" fill="#7DF37B"/>
<path id="5" d="M1116.91 353.228L1117.6 346.492H1124.52V348.079H1119.05L1118.65 351.762C1119.31 351.372 1120.06 351.177 1120.9 351.177C1122.13 351.177 1123.11 351.585 1123.83 352.402C1124.56 353.212 1124.92 354.31 1124.92 355.695C1124.92 357.087 1124.54 358.185 1123.79 358.989C1123.04 359.787 1121.99 360.186 1120.64 360.186C1119.45 360.186 1118.47 359.855 1117.72 359.193C1116.96 358.531 1116.53 357.616 1116.43 356.447H1118.05C1118.16 357.22 1118.43 357.804 1118.88 358.2C1119.32 358.59 1119.91 358.785 1120.64 358.785C1121.44 358.785 1122.06 358.513 1122.51 357.968C1122.97 357.424 1123.2 356.673 1123.2 355.714C1123.2 354.811 1122.95 354.087 1122.46 353.543C1121.97 352.993 1121.32 352.717 1120.5 352.717C1119.75 352.717 1119.17 352.881 1118.74 353.209L1118.28 353.58L1116.91 353.228Z" fill="black"/>
<ellipse id="Ellipse 6" cx="740.5" cy="226" rx="34.5" ry="33" fill="#7DF37B"/>
<path id="2" d="M744.973 235H736.123V233.766L740.798 228.571C741.491 227.785 741.967 227.148 742.227 226.66C742.493 226.165 742.626 225.655 742.626 225.129C742.626 224.424 742.413 223.846 741.986 223.394C741.559 222.943 740.99 222.717 740.279 222.717C739.425 222.717 738.76 222.961 738.284 223.45C737.814 223.932 737.579 224.606 737.579 225.472H735.863C735.863 224.229 736.262 223.224 737.06 222.457C737.864 221.69 738.937 221.307 740.279 221.307C741.534 221.307 742.527 221.638 743.257 222.299C743.987 222.955 744.352 223.83 744.352 224.925C744.352 226.255 743.504 227.838 741.81 229.675L738.191 233.599H744.973V235Z" fill="black"/>
<ellipse id="Ellipse 5" cx="617.5" cy="226" rx="34.5" ry="33" fill="#7DF37B"/>
<path id="1" d="M618.763 235H617.038V223.561L613.577 224.832V223.273L618.494 221.427H618.763V235Z" fill="black"/>
<ellipse id="Ellipse 2" cx="686.5" cy="121" rx="34.5" ry="33" fill="#F3E07B"/>
<path id="A" d="M689.027 123.475H683.368L682.097 127H680.26L685.418 113.492H686.977L692.144 127H690.316L689.027 123.475ZM683.906 122.009H688.498L686.197 115.691L683.906 122.009Z" fill="black"/>
<line id="Line 6" x1="784.29" y1="55.4077" x2="715.289" y2="104.408" stroke="black"/>
<line id="Line 7" x1="810.49" y1="65.9019" x2="821.49" y2="120.902" stroke="black"/>
<line id="Line 8" x1="836.184" y1="43.5351" x2="975.184" y2="98.5351" stroke="black"/>
<line id="Line 9" x1="666.389" y1="146.314" x2="628.389" y2="193.314" stroke="black"/>
<line id="Line 10" x1="706.426" y1="145.737" x2="735.426" y2="192.737" stroke="black"/>
<line id="Line 11" x1="978.431" y1="146.254" x2="945.431" y2="202.254" stroke="black"/>
<line id="Line 12" x1="1026.3" y1="141.602" x2="1105.3" y2="201.602" stroke="black"/>
<line id="Line 13" x1="1115.5" y1="264" x2="1115.5" y2="318" stroke="black"/>
<path id="Arrow 1" d="M522.358 226.349C522.551 226.152 522.547 225.835 522.349 225.642L519.129 222.499C518.932 222.306 518.615 222.31 518.422 222.507C518.229 222.705 518.233 223.021 518.431 223.214L521.293 226.009L518.499 228.871C518.306 229.068 518.31 229.385 518.507 229.578C518.705 229.771 519.021 229.767 519.214 229.569L522.358 226.349ZM439.006 227.5L522.006 226.5L521.994 225.5L438.994 226.5L439.006 227.5Z" fill="black"/>
</svg>
